P2
100 100
255
86 87 86 86 86 83 83 83 83 86 84 78 78 75 75 66 27 28 52 56 31 30 24 39 23 24 26 24 57 41 35 39 24 24 21 21 22 22 30 27 22 21 23 28 35 24 24 24 23 23 37 68 48 51 43 22 22 25 72 27 26 26 26 26 25 29 26 23 24 24 24 25 22 23 25 29 27 24 84 30 27 76 36 41 45 42 39 38 45 43 57 51 62 74 86 85 77 87 87 89 
82 82 80 82 75 78 82 82 83 81 81 82 66 70 79 76 27 26 66 56 29 22 30 60 21 20 22 28 49 54 35 27 21 20 19 19 18 20 48 21 20 19 20 32 26 20 21 20 21 19 36 27 57 44 48 23 23 23 78 25 23 23 21 22 23 36 35 22 23 23 23 24 24 21 21 26 35 24 48 29 25 36 28 46 45 31 30 56 83 81 73 74 82 75 57 69 80 83 83 83 
78 81 79 80 78 80 82 81 83 84 82 78 78 76 70 62 25 28 77 44 21 22 35 51 22 23 22 33 42 43 38 25 21 18 19 19 20 18 39 20 18 18 20 39 24 20 19 20 20 19 24 20 56 44 38 23 24 23 48 25 24 22 22 23 22 54 42 23 24 22 23 24 23 21 23 29 33 28 49 32 24 23 27 22 24 33 58 86 83 79 67 62 45 39 72 83 84 86 83 84 
39 55 79 81 83 83 84 85 83 82 83 81 82 83 78 53 38 30 46 27 24 29 26 24 22 24 24 26 67 33 37 24 22 21 20 19 18 20 39 19 19 22 22 37 21 19 27 19 20 21 21 23 53 47 45 25 24 29 60 25 24 25 23 25 21 29 31 23 24 24 24 23 21 22 34 32 31 32 36 37 25 24 28 31 60 53 58 66 69 53 49 68 54 71 83 84 83 84 82 84 
80 51 57 82 84 83 85 84 86 86 83 84 83 83 83 56 64 32 48 26 26 47 31 25 24 24 23 26 52 26 34 32 21 19 21 19 20 21 32 20 20 22 21 43 22 30 42 28 19 21 19 19 44 78 50 26 26 38 26 22 23 24 24 23 24 31 45 26 23 23 24 22 22 24 53 49 29 47 35 38 23 25 26 38 51 80 85 85 76 53 72 62 65 78 84 84 86 86 86 84 
84 82 61 62 80 86 85 86 87 86 86 84 82 83 82 57 65 59 45 24 25 55 27 23 24 26 25 26 28 26 27 28 23 21 21 20 20 22 27 23 19 20 22 35 21 24 52 66 21 20 22 25 35 88 78 25 26 47 25 23 24 24 24 23 23 48 37 23 24 24 23 22 24 55 57 52 30 49 36 47 23 23 26 56 85 81 66 66 71 53 64 47 78 83 85 87 86 86 84 85 
83 84 77 38 69 79 83 84 87 87 86 86 83 82 82 62 70 62 42 22 24 47 27 23 24 26 24 27 23 23 24 33 25 22 20 22 21 22 20 25 20 20 21 46 23 32 37 60 21 21 19 22 26 61 69 24 25 52 38 22 22 26 24 23 23 41 26 24 21 23 24 23 27 69 34 47 48 55 32 36 23 23 25 52 64 41 38 48 37 28 45 74 82 84 86 85 87 86 84 87 
81 83 84 45 44 69 84 87 86 83 85 84 86 83 83 75 58 60 23 21 26 39 23 24 23 42 24 23 24 35 23 26 27 23 21 22 21 20 20 21 20 19 39 55 22 29 31 74 20 19 20 21 22 36 52 35 32 58 38 23 24 26 24 23 22 30 24 23 21 23 22 23 79 47 49 41 63 37 28 35 23 24 24 71 28 27 38 56 37 73 82 78 84 83 84 80 81 81 84 86 
85 85 85 71 26 31 67 82 84 84 85 82 80 80 82 84 72 41 22 23 25 27 25 24 26 30 25 23 40 34 25 22 20 21 21 21 20 23 23 20 20 21 63 62 22 24 36 78 22 22 20 21 20 21 35 61 52 58 40 23 24 22 39 29 21 24 39 36 24 23 23 45 81 53 47 44 35 36 26 36 25 29 28 88 24 32 39 25 50 77 76 82 84 77 70 76 84 84 84 85 
87 83 82 86 56 24 23 26 44 65 71 62 60 54 77 80 78 28 22 23 22 22 22 27 26 23 20 22 50 24 32 21 21 21 22 21 18 19 22 23 23 22 81 64 22 21 36 78 21 20 21 20 38 27 37 51 87 58 36 23 24 24 59 27 22 33 53 40 22 21 23 52 47 49 35 57 44 24 32 35 27 31 33 103 26 36 23 36 57 65 79 83 77 66 83 86 84 83 85 84 
84 82 76 73 75 58 31 24 23 23 22 27 53 40 37 63 58 23 22 42 23 22 19 24 48 21 21 21 43 23 29 22 19 18 18 22 22 19 21 20 20 21 92 60 26 22 42 67 23 22 22 22 26 22 60 51 91 53 28 21 23 24 90 23 24 27 65 40 22 22 25 53 36 36 45 74 29 26 46 25 24 27 27 76 29 24 51 72 75 82 79 77 74 82 79 76 82 82 84 83 
82 84 83 82 83 68 82 64 48 33 21 21 27 58 59 31 30 23 21 48 20 22 21 21 53 23 20 21 24 23 22 27 20 20 18 34 34 21 19 20 18 20 82 55 29 21 35 57 21 20 23 47 22 24 81 90 82 63 29 23 23 48 94 22 38 24 63 27 22 24 26 38 24 27 85 55 23 28 36 23 37 28 25 47 26 23 37 32 64 65 64 72 62 57 67 78 84 84 86 86 
82 84 86 85 83 82 74 85 77 75 38 38 23 22 64 33 22 23 22 36 20 23 23 26 60 34 21 22 20 20 24 40 42 21 19 28 45 21 21 18 18 20 51 50 34 19 38 55 23 20 30 34 23 32 97 121 64 56 22 22 23 85 48 23 36 24 59 23 29 23 29 27 23 50 79 25 22 45 26 24 33 33 25 43 24 32 33 32 31 43 48 54 46 79 82 82 86 85 84 84 
84 84 86 86 86 83 74 83 83 78 68 61 65 25 29 35 23 22 20 26 22 19 23 26 40 42 23 22 23 21 24 31 45 19 18 25 62 27 21 18 19 19 49 60 46 21 25 44 21 22 27 29 23 42 89 123 36 27 22 23 29 90 22 32 25 23 31 41 33 23 23 24 29 60 41 24 24 37 26 26 29 29 23 25 23 24 33 28 51 80 75 47 80 84 85 83 83 82 82 84 
83 84 86 85 86 85 66 83 84 87 81 50 66 50 22 23 23 22 21 21 22 22 21 23 24 30 22 28 26 25 32 26 39 21 22 25 70 41 27 28 20 22 39 38 27 22 24 35 20 22 26 25 24 54 81 93 31 21 24 22 49 71 24 47 23 22 22 27 28 24 24 24 57 25 21 23 22 23 23 29 29 25 23 35 23 23 30 45 73 80 82 44 86 86 84 81 71 64 66 66 
83 86 86 85 85 86 66 73 83 86 84 78 43 36 24 22 23 23 20 21 20 21 22 22 29 25 24 29 57 37 46 27 42 20 22 22 47 65 27 34 21 21 34 23 22 21 26 24 19 29 23 23 59 30 57 66 26 25 26 24 86 47 54 64 23 27 28 40 25 26 27 24 27 23 22 23 24 26 23 39 41 26 31 33 23 23 31 56 78 85 63 56 83 86 76 40 25 24 39 51 
84 87 86 86 86 85 63 45 51 60 68 78 58 35 23 31 25 23 20 19 20 20 20 21 24 80 30 25 54 27 34 39 33 23 22 21 23 78 44 31 20 20 22 23 19 23 46 32 19 23 22 24 63 41 58 35 25 21 22 28 107 31 74 27 22 36 24 27 24 23 24 23 23 26 23 23 52 45 28 48 29 24 48 23 24 26 23 27 34 46 33 51 68 66 32 29 39 29 24 24 
79 81 83 83 83 78 56 43 58 42 40 46 42 72 22 23 28 23 19 20 22 22 21 22 23 52 115 27 28 38 24 40 28 35 23 23 20 32 75 55 20 20 22 29 23 21 52 32 21 23 22 46 34 38 42 30 23 23 24 64 81 65 40 23 37 38 27 24 26 26 22 24 24 26 26 66 64 28 42 26 22 25 36 24 26 24 24 36 34 42 40 58 57 27 30 39 39 53 55 58 
84 85 77 82 87 85 85 50 60 84 75 57 30 66 33 21 54 32 21 20 29 20 22 24 45 43 51 110 45 67 41 32 27 39 36 19 23 24 36 69 24 24 22 27 27 22 37 38 23 21 24 44 23 32 23 46 21 24 24 87 62 38 27 22 68 25 22 23 24 22 21 23 24 24 31 104 52 58 27 23 21 23 24 26 26 31 59 26 28 26 24 39 27 43 44 63 81 87 87 85 
84 86 83 82 73 80 86 72 48 53 79 77 51 26 23 22 24 45 24 21 39 24 33 24 53 164 123 52 58 64 86 58 82 25 31 21 22 23 50 31 23 30 23 24 36 23 22 42 26 24 54 27 49 27 23 48 22 32 23 78 28 25 24 27 51 23 23 22 23 27 23 24 24 37 54 40 56 28 24 23 22 24 22 22 26 35 47 23 23 43 29 35 38 28 70 84 84 84 87 86 
84 87 85 87 85 74 62 80 66 56 42 58 51 25 18 20 21 22 22 22 22 25 67 49 96 136 185 137 92 90 121 122 97 69 39 61 52 69 25 64 28 22 31 34 56 25 21 28 23 35 54 30 56 24 29 32 28 60 33 36 27 25 22 23 23 23 25 25 41 46 26 34 39 136 137 114 54 23 23 23 23 23 23 23 26 26 26 55 62 68 76 61 28 60 83 86 84 83 85 84 
83 86 85 85 87 83 68 38 65 74 77 55 31 29 22 22 21 21 21 23 23 24 32 66 126 146 130 179 207 208 194 186 67 94 102 171 102 126 81 36 87 67 119 66 43 42 33 22 23 68 35 85 67 26 44 23 82 49 29 39 54 23 28 35 29 48 64 73 47 92 126 192 138 174 182 124 58 22 21 21 19 18 20 23 23 23 25 92 23 41 45 25 45 83 84 83 83 83 82 84 
84 87 86 87 86 85 83 52 35 43 69 77 57 22 20 22 21 23 21 24 25 21 28 66 122 153 163 201 216 212 209 112 135 184 136 191 159 147 182 142 106 186 179 121 81 57 49 26 35 48 97 119 60 95 74 48 79 36 38 42 52 45 77 138 52 76 131 206 126 65 195 218 206 210 205 211 86 38 31 23 22 20 21 22 27 22 23 30 21 30 20 34 80 86 83 81 62 68 79 82 
83 85 84 87 83 87 84 76 44 25 45 64 69 26 23 48 22 23 22 23 24 26 40 88 108 193 202 219 217 216 186 97 189 206 137 157 169 199 198 168 170 185 174 149 188 186 102 54 81 40 98 104 107 96 91 123 142 165 115 113 198 201 159 157 152 66 107 207 209 125 132 217 226 215 225 214 96 31 23 22 29 28 33 40 30 22 26 22 30 31 38 31 77 83 70 36 57 69 73 76 
82 86 85 85 86 86 87 83 58 31 22 39 44 26 23 47 27 23 22 24 23 28 35 37 97 185 215 219 216 214 133 155 207 205 146 150 198 200 201 179 129 194 189 160 206 206 176 139 156 76 62 152 183 166 81 173 205 202 203 147 169 204 207 189 189 131 64 208 212 201 132 183 225 222 227 166 73 42 26 54 38 25 84 32 20 22 23 22 23 21 18 25 30 36 27 58 75 82 83 82 
86 86 86 83 83 77 72 69 55 45 21 24 40 37 23 22 37 25 21 23 23 26 51 113 173 228 218 218 217 213 127 183 208 205 135 184 202 203 195 190 160 205 162 169 202 206 201 195 196 120 54 163 192 197 153 135 185 198 197 198 150 194 204 206 197 176 44 175 211 201 173 149 225 235 234 184 100 49 34 27 22 28 27 22 22 24 47 28 23 30 26 20 22 36 54 58 73 84 83 83 
86 86 82 85 81 78 78 76 69 56 25 22 22 29 23 21 23 29 22 23 23 24 57 73 165 197 219 219 217 213 104 201 208 201 133 198 204 190 191 203 186 199 182 167 197 198 197 193 192 150 62 168 188 189 172 156 171 195 195 196 193 150 200 204 205 200 62 147 204 203 210 157 209 234 214 136 82 26 24 24 24 23 23 24 23 63 27 79 30 39 35 51 71 74 70 83 84 87 86 87 
69 69 73 77 84 83 84 84 81 73 51 27 20 21 23 23 23 28 34 40 38 28 29 34 67 192 217 215 216 213 131 209 208 177 161 193 195 190 201 200 201 191 175 195 196 199 198 197 193 156 69 180 187 186 180 185 151 191 194 198 196 185 175 200 206 207 100 131 198 206 215 205 173 237 204 69 110 64 42 39 41 51 41 24 24 29 23 22 28 34 35 78 86 87 85 85 87 86 86 86 
79 79 79 80 83 86 84 84 86 72 55 66 32 26 39 22 23 30 39 23 23 26 29 34 143 211 218 218 215 213 162 191 191 127 194 195 189 197 199 199 200 192 175 195 196 197 198 196 195 120 83 188 188 181 186 190 159 188 189 193 195 190 181 191 201 209 120 122 186 212 212 216 185 226 235 93 42 43 29 26 36 26 25 24 22 22 24 37 34 30 77 83 85 86 84 87 87 86 87 86 
45 39 48 70 77 79 84 86 84 79 35 50 65 28 33 47 22 24 32 32 26 25 28 53 171 220 219 215 215 211 192 146 132 190 192 186 178 192 196 197 198 189 198 198 198 196 193 193 193 88 155 186 189 182 187 192 174 176 190 193 193 192 189 183 190 204 123 119 207 201 215 213 223 192 226 114 39 23 24 24 23 24 25 23 43 31 24 27 41 39 79 86 84 88 86 83 84 76 82 88 
62 51 45 37 49 80 81 79 81 62 74 55 38 28 26 24 28 23 23 23 22 27 57 63 79 147 200 213 212 212 185 112 194 199 191 162 188 192 196 197 198 187 194 194 191 191 189 188 164 123 179 183 186 182 187 188 188 173 192 192 196 198 197 194 186 197 111 118 216 207 212 210 222 231 151 36 29 23 21 27 44 65 66 56 39 26 23 27 22 23 42 74 68 53 58 68 73 67 55 51 
83 82 77 53 33 33 54 54 48 38 49 58 35 21 23 21 22 24 24 21 22 22 24 56 144 186 195 205 210 199 161 185 166 186 181 157 186 190 193 195 196 168 189 189 187 183 186 182 120 170 180 179 179 181 184 186 185 179 192 197 195 190 193 191 189 196 95 127 213 216 211 209 222 226 116 27 23 21 22 29 27 26 50 30 24 27 29 23 36 38 25 24 26 42 68 62 38 52 66 74 
82 75 72 63 44 32 23 26 29 33 23 22 18 18 20 22 22 28 29 22 22 21 23 26 80 126 185 204 206 163 180 201 167 186 181 154 182 182 187 190 191 167 188 186 183 179 179 127 146 172 171 172 172 175 178 175 180 188 188 187 188 185 185 180 183 189 89 148 209 214 212 209 222 225 101 29 29 27 29 24 26 24 38 56 42 27 24 61 142 50 70 78 78 70 46 57 83 84 84 86 
82 83 82 76 63 57 38 23 21 21 21 20 22 22 22 23 22 23 23 22 22 27 33 39 130 171 202 203 188 155 198 193 167 189 182 173 170 178 184 184 186 179 177 186 186 176 158 128 168 168 169 162 158 157 173 177 177 176 173 174 178 179 179 182 186 192 93 159 212 214 213 212 216 157 92 26 27 24 38 52 25 23 24 26 27 30 60 104 160 59 34 34 37 28 65 86 86 84 86 86 
83 85 82 83 77 62 76 60 31 23 23 30 28 23 27 30 22 21 21 27 29 33 52 172 223 201 204 204 170 186 211 205 172 177 168 165 149 159 164 168 167 170 163 178 176 171 129 169 162 152 139 133 146 159 161 157 160 162 169 176 177 179 179 177 187 194 94 161 213 213 212 211 218 217 71 34 24 24 21 23 37 28 32 33 42 49 36 24 23 27 21 21 30 62 84 82 83 84 84 84 
62 55 46 50 52 43 43 73 75 57 54 55 40 23 25 23 23 24 24 23 24 32 129 234 219 203 207 206 163 208 211 208 183 198 191 185 183 182 173 170 170 170 165 168 163 143 115 143 153 157 162 164 168 169 172 172 173 175 172 172 177 179 176 178 183 187 84 164 213 215 210 208 216 234 163 31 25 24 23 20 21 22 22 24 22 21 20 19 20 46 49 35 70 51 40 50 47 72 84 84 
83 84 78 62 58 34 24 27 55 73 61 81 120 45 32 24 23 30 25 23 27 71 226 221 213 208 210 196 178 210 211 208 189 208 206 193 187 186 183 179 183 179 179 172 172 104 152 167 168 173 171 170 171 171 174 173 172 171 176 177 177 179 181 184 187 190 72 157 214 212 211 212 216 236 238 117 29 24 23 20 21 21 21 23 24 46 21 22 23 27 31 23 22 30 42 53 58 45 71 81 
84 86 86 81 57 67 35 31 21 24 24 37 21 21 23 31 49 30 23 23 28 150 221 202 197 207 208 193 187 212 211 211 198 209 212 203 192 186 186 181 177 174 173 177 164 107 158 162 164 165 165 165 166 173 171 169 173 173 172 177 179 182 188 187 190 193 86 160 212 214 216 211 216 236 237 233 81 28 26 21 21 20 21 22 22 25 52 40 73 22 23 40 60 62 57 44 48 76 62 61 
84 83 84 83 80 40 27 48 25 23 34 32 34 36 26 32 22 22 22 24 33 182 171 158 136 152 167 178 196 206 213 212 206 210 209 202 197 189 182 179 183 185 178 178 138 141 158 168 164 169 163 169 166 168 172 172 174 177 178 182 188 188 188 189 194 199 107 134 211 214 214 214 214 235 238 237 208 30 27 31 23 31 23 23 32 32 29 55 180 78 74 79 83 83 83 82 81 73 72 76 
83 84 83 83 83 79 50 29 27 29 48 27 35 24 23 24 50 30 24 25 51 186 169 174 147 106 93 110 172 207 214 210 193 209 212 210 206 196 190 191 190 189 187 181 132 162 160 166 166 174 167 167 165 170 171 174 178 184 183 186 192 193 191 197 199 209 135 108 213 216 208 203 210 223 208 201 200 78 27 33 25 50 41 22 27 22 20 30 50 70 78 78 81 83 84 83 83 86 83 80 
84 84 85 86 84 83 81 78 43 24 26 22 27 23 23 39 27 24 24 27 66 205 181 187 182 149 129 110 80 113 201 210 186 208 209 208 208 197 191 190 193 195 189 187 137 180 168 171 169 174 168 167 172 174 182 181 186 186 186 187 192 192 193 198 207 206 155 70 206 185 141 122 123 150 158 163 194 147 27 26 27 29 27 22 22 20 22 24 31 54 45 35 41 78 83 84 83 82 83 84 
83 83 83 86 86 84 83 77 34 34 97 146 52 23 23 26 23 22 23 26 57 215 195 199 197 187 173 162 114 55 94 143 173 208 209 208 206 198 193 191 192 192 192 192 149 189 177 171 170 172 173 165 178 183 186 192 186 186 188 188 189 195 199 207 211 206 165 44 92 80 105 137 125 140 178 198 205 204 30 26 26 24 39 28 22 43 36 23 22 24 29 30 31 51 79 82 85 83 82 82 
82 82 82 84 84 82 83 59 52 78 134 91 25 23 25 22 24 23 20 24 47 213 202 202 205 198 202 200 186 124 71 68 95 184 199 205 205 197 195 192 192 189 193 193 165 194 185 175 174 174 169 167 180 190 199 200 186 185 188 189 192 196 209 209 202 132 77 40 60 119 162 169 193 210 207 208 218 227 60 27 28 36 24 70 26 38 160 93 38 53 41 22 30 38 57 70 72 72 83 86 
80 82 84 83 82 83 82 36 54 67 59 45 23 26 26 24 53 19 23 23 63 203 203 193 203 195 203 208 208 184 114 85 67 79 121 172 204 202 196 191 192 192 194 197 184 194 185 170 174 179 168 168 182 189 203 196 186 185 188 190 197 198 203 163 93 75 68 46 61 187 207 198 189 198 209 212 223 227 82 26 24 32 31 30 40 56 48 107 46 45 51 76 52 39 48 57 74 83 84 83 
82 83 83 82 83 82 71 40 69 63 40 26 23 27 41 76 40 22 22 25 83 208 221 202 184 195 202 202 201 195 177 124 90 62 65 71 147 198 197 193 194 191 193 194 192 178 187 172 179 183 172 173 187 187 188 186 185 188 190 197 198 185 131 67 60 75 99 138 44 187 180 181 189 206 213 218 227 226 79 24 24 22 28 25 22 36 35 52 74 46 82 81 80 80 83 83 84 82 85 84 
82 83 83 82 83 79 85 75 57 61 39 45 43 105 68 77 23 23 23 24 44 189 224 225 180 140 179 204 211 195 174 157 135 78 61 72 63 112 180 197 196 198 199 193 190 186 188 176 177 182 176 174 187 188 185 186 186 190 193 181 138 72 68 49 59 125 154 151 51 164 192 192 188 195 203 224 227 225 74 26 24 24 21 22 24 38 26 62 59 50 69 79 83 79 82 83 84 82 86 86 
84 83 83 84 83 83 71 49 31 29 27 29 70 41 35 26 24 23 23 26 36 177 224 230 221 168 104 110 144 174 198 192 178 142 73 66 66 63 89 152 194 200 199 198 199 192 189 173 174 178 176 177 193 192 183 181 174 161 119 75 58 49 60 54 109 143 164 199 93 141 152 120 129 199 223 229 230 229 81 25 24 23 23 22 23 85 35 40 53 49 35 47 59 78 84 86 83 84 86 86 
81 83 83 82 72 38 23 23 24 38 35 23 22 21 26 22 23 26 24 24 38 122 221 229 236 221 179 121 98 115 103 103 127 158 156 100 70 65 65 82 126 171 194 203 206 202 196 174 178 181 177 177 195 198 160 111 107 79 55 68 61 51 79 140 165 150 128 106 64 60 74 107 196 229 236 233 229 229 79 26 23 22 23 24 43 28 80 41 48 43 65 67 68 55 80 82 83 87 87 83 
80 84 83 75 27 29 35 67 64 30 33 31 31 79 41 39 34 25 24 25 42 141 160 232 240 233 210 175 171 229 213 171 93 64 61 93 101 88 76 88 81 89 114 172 204 197 188 172 176 181 177 168 187 131 65 58 64 67 52 63 63 79 88 68 58 92 130 198 193 103 137 187 215 234 238 238 229 228 59 23 24 24 23 40 58 48 59 26 37 59 53 60 81 75 58 82 83 84 86 84 
82 81 82 52 42 58 77 72 38 65 66 75 138 45 58 40 42 23 24 28 34 156 139 221 238 234 218 188 163 221 243 217 135 80 42 83 75 84 69 94 86 82 71 83 141 135 159 172 181 178 186 156 125 73 59 52 55 63 77 55 89 97 89 52 66 170 171 233 222 98 168 198 222 237 240 239 232 192 28 23 23 23 23 48 77 42 143 91 57 29 39 42 72 79 67 76 85 86 84 83 
84 83 84 51 51 63 80 51 75 61 38 71 101 73 48 26 39 23 26 26 71 160 171 169 239 238 220 192 183 169 234 222 201 142 113 123 145 168 111 73 112 92 75 69 102 118 167 171 165 167 188 182 151 99 88 96 103 98 59 120 169 151 153 116 122 168 228 241 157 109 187 204 224 238 242 240 232 140 32 24 26 52 26 37 103 68 69 84 83 75 50 36 48 78 79 78 76 78 80 82 
80 84 82 56 48 80 81 65 86 73 75 74 174 180 98 63 35 28 47 26 75 217 141 158 240 238 220 190 172 180 159 187 202 186 175 169 173 167 148 79 102 141 121 146 163 176 177 168 149 153 165 190 185 151 149 156 109 69 93 160 169 172 155 147 152 185 198 145 155 135 189 207 225 237 239 238 220 107 42 25 24 29 32 45 52 142 54 76 84 84 75 61 26 61 74 86 83 84 86 84 
82 83 81 50 56 83 81 81 82 77 83 82 104 207 95 93 32 26 24 26 72 217 219 102 235 237 227 196 177 163 169 163 148 151 151 142 128 123 119 123 129 114 167 163 176 184 192 171 162 160 163 174 197 174 163 137 135 120 105 107 132 153 172 166 159 138 144 184 191 145 168 211 228 240 241 237 192 66 33 33 46 30 22 30 51 60 57 69 83 83 81 79 60 46 71 77 83 85 84 86 
84 85 85 42 75 83 80 83 81 75 63 54 63 132 83 51 23 23 24 30 69 214 227 177 165 239 236 217 197 181 162 149 143 139 140 139 137 133 144 163 184 194 194 163 183 202 201 169 154 167 168 175 202 186 166 177 183 150 148 143 139 141 143 153 162 169 173 177 182 162 155 217 231 242 243 239 147 124 33 52 73 31 24 25 38 54 49 65 86 85 83 80 83 61 63 75 83 87 87 85 
82 79 54 61 66 53 50 47 36 39 62 63 58 54 36 24 24 23 24 30 61 207 223 227 92 237 238 225 207 191 173 165 160 160 160 159 160 167 177 189 202 202 165 175 195 207 197 166 162 167 171 178 203 197 162 179 203 191 156 151 150 147 148 154 157 160 168 182 200 169 156 218 230 242 241 236 106 167 34 58 63 30 103 37 27 34 59 49 77 88 83 84 84 85 81 76 62 63 76 86 
75 56 48 49 43 53 65 76 73 72 67 64 80 56 85 37 54 23 27 29 53 203 217 222 66 213 239 230 217 208 192 177 170 172 179 182 184 190 196 208 198 171 165 181 200 206 187 156 163 166 172 181 204 201 175 163 184 203 205 184 167 162 164 166 168 177 183 200 213 190 142 219 232 242 236 218 132 159 37 35 42 56 165 96 52 59 43 32 59 80 87 86 85 84 86 84 86 87 76 78 
63 66 63 79 83 84 83 84 85 86 83 73 69 56 62 94 60 24 29 28 48 202 216 218 91 190 239 234 223 213 205 196 192 189 193 199 199 201 189 172 168 162 172 187 207 204 185 165 168 167 173 183 202 205 195 172 165 174 189 204 210 206 198 197 199 201 206 208 214 208 112 218 235 232 226 187 144 139 29 27 47 89 143 106 67 47 66 73 45 48 83 83 86 83 86 87 88 88 88 88 
79 73 82 83 83 83 82 83 76 70 74 71 44 27 39 111 51 24 27 26 36 188 210 211 114 178 238 234 224 217 205 200 196 197 197 203 202 167 157 162 165 168 178 200 213 198 181 162 164 162 170 179 198 207 200 178 165 168 167 169 188 209 213 212 210 207 206 201 210 210 88 212 224 221 208 152 160 133 32 27 38 120 123 108 75 59 79 82 74 45 46 80 84 86 84 87 87 87 88 89 
80 81 83 84 83 83 79 65 58 66 49 36 55 66 63 63 30 24 90 28 29 155 204 212 107 201 231 233 224 218 207 202 196 197 197 182 154 153 156 159 166 174 186 207 212 192 177 156 159 159 164 181 196 206 207 191 172 168 169 156 161 178 198 206 203 203 204 204 203 202 78 197 212 202 199 128 168 114 35 27 35 79 95 132 119 47 80 86 83 68 36 61 76 78 82 84 85 82 84 84 
83 83 82 84 84 80 71 46 60 63 81 79 63 53 50 47 26 27 165 33 27 119 183 204 86 208 224 228 218 213 206 203 197 191 180 156 147 150 152 156 166 176 183 208 201 188 174 148 147 156 167 176 192 198 208 201 180 176 169 162 158 158 173 188 197 193 194 195 198 190 70 184 197 194 195 121 191 103 45 39 33 31 26 48 62 65 63 83 84 83 50 70 86 83 82 84 84 83 83 85 
82 83 83 82 81 79 59 51 80 84 85 85 85 83 81 51 26 74 70 67 27 96 183 192 81 189 216 221 215 205 200 198 188 177 170 155 154 155 152 159 168 176 190 198 186 188 172 148 143 162 168 180 193 197 208 206 186 175 172 171 166 163 157 171 184 188 188 193 188 176 69 183 189 193 192 137 187 79 69 31 36 100 61 26 27 52 62 67 78 84 65 74 83 81 83 83 82 82 84 84 
82 83 84 83 84 71 60 79 83 84 81 80 79 79 53 26 63 86 145 39 33 69 212 206 118 192 183 201 212 203 195 189 181 175 167 159 164 162 159 167 172 180 193 191 186 184 177 157 145 164 167 180 190 196 200 201 186 183 178 177 175 161 153 152 168 178 183 181 182 155 85 182 187 188 188 127 174 55 51 33 56 54 75 52 26 48 75 72 71 70 81 64 83 83 81 80 83 82 83 83 
82 83 83 83 71 73 82 83 81 64 51 50 37 31 25 44 49 85 45 37 26 34 203 205 127 197 193 188 189 197 192 185 178 171 165 167 167 161 163 169 172 179 189 186 186 189 178 154 144 159 168 182 189 192 196 200 192 182 186 181 177 167 164 155 160 172 173 173 176 124 118 174 186 188 164 124 178 61 37 83 98 96 92 71 31 69 81 83 76 80 77 76 70 83 82 80 81 83 85 84 
82 82 82 81 71 81 84 82 58 54 61 52 41 35 37 27 25 65 83 87 24 30 173 216 134 207 198 197 198 191 185 186 176 172 171 168 162 166 170 170 174 184 185 187 187 192 182 147 141 160 169 179 192 193 198 201 193 187 186 185 178 172 167 159 163 169 174 173 174 91 161 173 184 187 145 153 187 50 25 49 84 100 87 52 32 39 57 69 78 79 82 84 81 70 78 82 82 82 84 84 
82 82 81 65 74 74 69 56 53 54 33 47 43 36 54 52 42 29 72 79 36 38 135 217 137 206 198 195 196 191 188 185 178 177 177 169 169 167 166 172 177 188 187 189 190 195 181 147 152 158 166 177 197 204 203 205 196 187 187 188 181 173 168 167 167 168 172 177 156 99 170 178 188 182 151 172 183 40 100 36 29 81 34 31 24 60 78 62 62 64 74 82 80 80 81 80 82 83 82 84 
81 82 82 78 81 83 83 66 75 51 76 51 44 81 80 78 75 73 65 77 50 33 96 228 149 212 203 196 193 188 187 187 179 176 174 172 175 171 173 180 182 192 187 189 193 198 177 148 149 153 165 175 194 202 204 202 187 188 189 188 185 179 173 166 169 171 172 172 122 152 172 187 196 169 178 182 166 37 41 56 23 23 38 66 51 40 76 78 80 78 77 77 82 82 81 83 83 84 83 84 
82 83 83 82 81 80 80 78 48 70 74 44 78 82 75 81 81 79 73 117 41 47 56 229 171 189 216 203 195 188 186 186 181 180 178 174 179 175 183 177 179 187 189 192 198 198 169 151 149 154 162 174 192 203 205 196 188 188 190 187 187 181 176 172 176 174 173 176 108 179 178 197 179 152 214 201 140 31 26 29 43 24 36 72 66 48 43 56 61 59 73 82 80 80 80 79 83 81 84 84 
82 82 81 82 81 76 84 82 42 66 48 55 80 83 76 75 82 68 81 38 38 69 65 211 229 148 217 207 195 188 186 186 183 179 179 178 176 177 175 177 178 183 193 196 199 186 159 145 149 154 158 171 190 202 203 196 190 189 188 189 189 183 177 176 177 177 177 148 139 180 195 210 153 207 229 206 133 52 72 29 33 35 42 40 64 67 72 77 72 56 38 67 80 80 82 81 83 81 81 82 
81 81 82 83 83 73 81 56 58 81 59 61 60 67 77 58 63 76 48 119 39 87 132 194 236 188 203 215 202 189 186 188 186 182 182 182 185 183 178 174 183 186 179 188 197 175 147 144 150 156 159 174 183 202 193 183 190 189 187 196 195 186 183 180 178 179 179 121 168 178 192 170 211 233 231 200 172 78 52 55 62 49 49 37 43 46 53 69 79 63 50 38 80 81 79 79 80 80 83 80 
81 81 84 81 82 73 81 48 64 57 56 57 65 57 46 69 43 45 119 69 28 99 188 189 236 236 169 218 206 195 188 191 185 182 181 184 185 186 179 180 185 178 163 184 195 162 144 159 169 167 167 176 179 196 191 183 187 186 186 192 193 196 186 179 180 179 159 137 174 181 162 202 230 238 231 198 181 71 100 66 27 25 21 30 29 22 19 24 43 67 64 46 81 82 79 82 80 82 81 80 
82 83 81 84 83 74 45 63 82 82 82 77 69 66 57 42 40 60 56 83 65 91 195 192 234 237 220 193 205 196 192 192 183 183 180 188 191 186 181 185 181 159 179 192 180 143 142 169 178 189 183 181 183 189 197 190 178 187 189 196 201 200 192 182 185 182 131 172 176 151 187 225 239 240 222 197 139 27 106 106 91 31 23 46 77 69 42 46 31 35 68 52 78 81 81 82 83 80 77 74 
82 80 82 83 78 51 57 78 79 80 83 82 83 83 81 66 78 97 57 32 22 52 215 189 224 238 231 215 192 197 195 187 181 184 183 192 191 184 182 179 164 138 163 176 158 138 148 175 190 194 193 188 180 172 174 167 164 184 192 196 203 203 189 178 181 171 130 153 154 183 195 221 235 237 206 204 137 27 34 63 65 99 38 46 39 75 58 54 76 47 40 52 78 81 80 78 79 66 65 80 
78 80 83 68 57 77 79 66 81 80 81 79 80 82 81 89 70 25 20 21 22 33 227 201 218 229 225 209 195 192 192 190 185 182 187 194 195 193 188 182 149 132 140 134 130 133 155 177 193 211 201 178 165 154 155 154 153 187 196 199 205 203 192 184 183 144 156 173 178 187 191 207 228 219 198 218 120 26 22 23 26 55 102 96 42 45 74 37 70 79 70 55 53 66 66 66 63 73 79 80 
82 79 69 82 76 81 82 76 54 74 78 79 78 82 90 106 22 22 21 21 23 29 214 225 204 206 194 201 192 192 191 189 188 186 193 197 191 194 192 185 154 140 158 153 138 143 157 174 177 177 167 159 158 160 163 165 159 193 200 201 201 198 194 178 183 147 175 178 178 186 186 204 196 195 194 222 102 25 23 23 23 24 82 133 65 54 57 35 76 78 80 79 66 68 70 73 75 79 80 81 
78 66 80 82 75 82 82 81 73 56 63 63 65 65 78 23 21 20 21 23 23 27 180 233 201 173 189 198 192 192 192 191 189 198 203 198 195 192 191 192 176 131 171 152 164 153 141 143 140 138 144 142 155 151 166 174 158 206 203 202 200 202 198 183 182 146 182 177 180 181 179 192 186 187 194 235 95 25 23 23 21 23 27 123 92 51 30 41 67 79 82 82 81 78 79 80 79 80 80 82 
70 81 82 84 77 79 83 83 83 75 65 63 74 96 31 23 21 21 23 21 23 26 159 234 199 176 175 193 184 192 195 197 194 199 206 198 196 196 196 197 196 134 104 112 96 108 155 134 144 146 147 140 89 126 137 126 198 213 208 203 206 205 198 183 178 159 182 177 177 181 174 182 180 182 210 243 78 27 23 24 24 23 22 39 72 40 25 62 79 81 81 81 79 79 82 80 79 82 82 81 
67 83 82 86 83 77 82 84 82 84 77 76 66 84 22 23 23 22 23 23 23 26 154 233 198 162 171 188 189 192 199 207 203 208 209 203 201 202 207 204 208 194 105 72 69 68 130 143 146 145 147 71 69 63 101 189 209 212 211 205 203 206 205 195 178 168 186 179 180 179 177 175 170 193 234 239 70 26 24 25 25 26 24 75 88 41 55 53 71 81 78 82 80 81 81 83 79 81 80 83 
75 81 82 84 83 81 79 83 82 82 83 83 87 52 22 23 22 22 23 24 24 27 123 236 215 165 172 186 193 202 212 221 216 214 211 207 206 209 210 212 211 202 149 68 69 69 78 109 108 94 72 78 77 72 153 207 209 212 210 212 206 206 208 202 187 173 189 186 182 179 178 177 174 224 242 242 65 25 22 23 23 24 24 81 81 54 74 77 69 72 72 70 83 81 81 80 84 82 82 85 
82 81 83 81 81 81 81 81 82 84 84 83 87 24 23 20 24 22 21 20 24 27 120 219 221 187 158 170 195 212 222 227 223 216 211 208 205 207 207 201 185 166 145 82 62 57 58 63 67 66 76 89 102 90 155 165 170 177 177 192 191 196 203 206 196 165 194 191 181 179 173 165 192 238 242 241 57 27 23 24 24 24 24 72 87 45 79 82 76 68 71 68 80 83 83 81 80 81 78 82 
80 82 83 82 84 83 81 82 83 83 83 95 34 22 21 21 22 21 22 21 23 24 99 161 220 192 161 148 195 216 222 227 223 219 211 161 161 162 162 161 161 155 142 111 92 81 64 83 99 95 93 101 122 119 150 155 150 151 148 149 152 161 164 198 207 167 199 187 181 168 163 170 221 239 241 237 48 25 21 23 23 23 21 50 96 64 60 80 82 78 68 61 75 80 78 78 80 79 79 79 
79 83 84 84 83 82 83 82 81 82 82 66 22 21 23 21 21 21 22 21 21 21 50 182 188 172 174 139 176 207 219 222 222 216 156 137 138 135 132 147 146 140 127 114 115 107 120 121 132 122 124 126 118 127 147 146 137 126 148 143 133 140 137 168 212 171 200 189 182 162 158 196 232 239 237 228 37 24 23 23 24 23 23 33 100 81 57 58 82 81 81 72 63 80 80 79 80 79 81 78 
78 80 82 84 81 82 81 80 82 81 90 54 21 19 21 20 19 20 19 21 19 19 33 135 130 186 181 164 154 198 213 222 221 201 144 117 129 144 156 158 165 145 149 127 140 159 156 148 149 147 160 176 169 166 163 143 141 127 129 149 146 114 137 169 214 188 186 188 177 156 166 215 235 239 238 154 28 23 24 22 24 24 22 25 100 80 57 59 68 79 80 76 69 77 80 79 79 80 80 79 
76 78 82 81 81 81 81 80 80 87 94 26 20 20 20 20 20 20 19 17 19 22 42 71 147 200 178 165 139 172 198 222 219 196 141 168 168 173 175 161 153 155 147 141 132 124 137 158 155 153 141 144 153 153 158 172 173 161 155 142 159 160 133 181 218 213 168 182 165 149 189 225 242 240 219 115 37 23 22 21 21 23 21 21 73 76 73 59 62 80 80 78 69 77 78 78 80 81 80 79 
78 79 79 78 80 81 82 78 81 95 30 19 20 21 21 20 19 19 21 19 18 20 52 130 142 195 171 162 154 139 188 211 219 193 159 194 202 170 135 111 99 93 86 90 94 98 104 119 139 133 123 112 110 119 117 115 119 116 141 186 206 184 137 181 216 218 182 178 152 171 209 232 240 238 160 110 44 23 24 24 23 24 24 22 50 96 78 58 78 79 79 81 77 74 79 78 80 82 80 80 
76 80 80 79 79 78 80 80 97 30 21 19 20 20 22 19 21 18 18 19 21 21 37 90 209 214 172 167 159 147 151 203 217 197 158 187 208 206 196 170 142 146 141 143 138 133 125 116 120 123 134 146 153 156 157 160 169 188 203 209 210 184 138 190 217 216 178 140 141 179 215 233 239 200 189 225 69 23 24 22 21 23 23 23 24 77 85 64 78 78 78 78 78 78 80 78 79 78 79 78 
74 77 79 79 78 79 80 96 36 19 19 18 18 21 20 21 19 19 18 18 18 19 39 82 231 216 182 169 161 155 142 176 208 191 154 190 211 207 205 189 191 189 172 155 155 156 159 161 159 159 159 168 167 169 188 202 201 204 208 208 207 185 138 192 215 201 147 120 159 191 225 233 239 171 224 217 58 23 21 24 23 21 23 24 21 22 70 69 78 79 78 79 78 78 79 79 79 79 78 78 
75 76 78 77 78 85 101 37 23 21 19 19 19 22 21 20 20 20 20 19 20 21 50 57 183 211 176 165 159 162 137 136 189 186 161 191 213 209 207 206 191 187 175 162 170 176 175 163 167 164 174 187 172 168 176 184 203 213 215 209 210 185 139 201 201 175 118 145 170 204 227 235 237 186 229 204 39 22 22 23 21 21 22 23 21 21 21 42 86 77 78 77 78 78 78 78 78 79 78 79 
75 75 79 79 99 110 39 21 20 20 19 18 20 21 20 20 18 20 18 18 20 21 66 99 153 149 175 161 163 162 152 117 160 181 163 192 212 213 211 210 207 192 155 138 132 129 134 138 143 141 130 126 130 135 172 202 209 214 217 212 216 188 151 200 175 135 114 156 178 218 227 233 237 212 236 178 26 23 20 23 23 20 22 22 23 22 21 19 51 87 78 79 77 78 77 78 79 78 78 78 
73 75 84 130 122 37 20 19 22 21 19 18 19 18 19 19 19 21 21 20 20 21 76 116 222 173 156 159 160 162 158 135 129 149 169 186 216 216 215 207 209 209 186 161 137 121 107 101 108 111 108 122 158 185 206 212 209 213 216 216 216 182 148 174 148 123 117 153 194 225 225 230 239 234 234 154 26 23 21 22 22 20 23 24 23 23 23 22 21 63 90 80 79 78 78 79 79 81 78 79 
74 84 157 92 24 20 20 18 18 21 18 19 20 20 18 18 21 20 19 20 19 23 61 89 222 208 170 137 153 172 168 151 127 129 165 178 213 219 216 205 203 199 199 196 185 178 170 162 153 150 160 179 198 204 209 207 207 214 221 217 216 182 138 155 120 120 108 157 215 226 221 222 228 236 229 150 26 23 21 22 21 22 22 22 23 23 21 20 21 23 86 85 78 78 78 78 79 80 80 78 
76 77 44 18 18 18 18 18 18 18 18 19 20 19 18 17 18 19 18 17 20 23 119 48 204 208 183 161 164 165 168 155 140 102 128 154 189 207 213 204 199 193 185 179 171 165 160 157 153 162 175 184 192 196 197 200 207 217 218 218 210 170 147 121 111 129 110 174 223 228 216 219 227 229 217 137 25 22 23 20 23 23 22 21 21 22 21 21 18 22 23 87 88 76 78 79 79 78 79 81 
62 62 20 19 20 18 20 21 18 20 18 19 21 21 21 19 20 19 18 18 20 26 132 81 182 207 181 162 163 169 174 165 146 124 86 138 164 193 198 196 196 193 189 177 173 166 158 158 150 159 169 173 183 193 199 202 206 216 217 213 184 138 125 105 121 137 105 183 223 225 206 214 224 227 205 124 23 21 21 22 23 21 22 21 21 22 23 22 20 22 23 24 79 97 78 78 78 78 80 79 
53 66 26 20 21 20 19 20 21 18 21 19 19 20 21 21 20 19 22 21 24 30 135 100 144 200 187 157 157 169 170 165 151 136 97 96 138 174 173 179 183 180 180 165 155 155 154 146 153 153 161 167 169 182 186 189 194 210 209 183 152 113 106 110 133 142 114 201 226 222 201 208 219 227 195 104 23 20 21 21 21 22 23 23 23 23 23 23 21 21 20 22 22 53 105 83 79 79 83 81 
57 61 39 20 20 19 21 20 21 20 21 19 22 21 21 22 20 20 22 21 23 33 136 95 145 181 188 163 162 167 171 165 149 136 124 84 106 142 152 163 160 162 155 147 137 145 134 135 141 148 147 157 166 167 172 164 186 201 180 147 116 100 90 120 140 122 148 213 222 216 202 206 216 222 186 94 21 21 20 20 21 20 20 22 23 24 26 23 23 23 22 20 21 23 34 98 90 78 78 78 
60 63 45 20 19 18 18 20 20 17 17 19 20 18 21 20 21 20 19 21 24 32 133 103 176 167 189 162 159 168 172 171 153 137 127 110 57 92 98 136 138 141 137 134 126 135 127 111 121 139 135 142 148 149 148 155 160 166 137 104 92 83 112 127 142 125 166 205 217 204 202 208 218 219 179 84 22 22 21 19 21 21 21 20 23 23 22 23 22 23 22 21 21 22 19 25 71 105 84 78 
60 67 51 22 19 18 18 18 18 18 19 18 18 20 19 20 18 20 18 19 22 29 131 106 170 175 178 158 153 166 166 165 157 142 128 124 79 55 63 81 108 116 124 125 127 120 116 105 126 119 136 138 129 126 136 128 125 118 103 86 76 104 128 138 121 144 178 204 205 194 204 209 220 216 174 80 22 18 20 20 20 20 21 18 21 22 23 21 20 20 19 21 19 18 20 18 19 30 79 92 
60 63 62 26 20 18 18 20 18 18 18 18 18 18 17 18 18 18 17 18 20 23 112 112 138 175 166 153 149 158 164 162 149 138 137 128 116 80 59 66 94 104 117 121 121 120 113 106 111 115 139 128 125 117 122 107 96 86 73 64 100 117 130 125 136 161 189 207 187 187 194 210 219 210 162 82 20 18 17 17 18 18 19 17 18 20 19 18 19 18 20 20 20 17 17 15 16 14 19 40 
63 63 67 51 39 41 41 42 39 39 39 39 40 39 39 37 37 39 39 39 40 41 84 111 91 126 117 117 113 121 123 123 119 111 109 107 102 87 73 64 63 82 90 98 108 94 89 93 93 96 100 102 99 89 86 85 76 68 63 76 96 102 107 106 119 133 146 151 142 142 152 159 163 155 126 78 39 39 38 38 39 40 39 38 40 39 42 40 42 40 40 40 40 39 38 38 38 38 39 40 
77 77 77 77 77 77 77 77 77 77 77 77 77 77 77 77 77 77 77 77 77 77 77 77 77 77 77 77 77 77 77 77 77 77 77 77 77 77 77 77 77 77 77 77 77 77 77 77 77 77 77 77 77 77 77 77 77 77 77 77 77 77 77 77 77 77 77 77 77 77 77 77 77 77 77 77 77 77 77 77 77 77 77 77 77 77 77 77 77 77 77 77 77 77 77 77 77 77 77 77 
77 77 77 77 77 77 77 77 77 77 77 77 77 77 77 77 77 77 77 77 77 77 77 77 77 77 77 77 77 77 77 77 77 77 77 77 77 77 77 77 77 77 77 77 77 77 77 77 77 77 77 77 77 77 77 77 77 77 77 77 77 77 77 77 77 77 77 77 77 77 77 77 77 77 77 77 77 77 77 77 77 77 77 77 77 77 77 77 77 77 77 77 77 77 77 77 77 77 77 77 
