P2
114 114
255
86 86 87 87 86 86 85 84 83 84 85 86 83 76 77 75 75 72 32 26 39 56 51 31 31 24 39 25 24 25 26 24 59 43 34 46 28 24 23 22 21 22 22 22 35 23 22 21 23 23 43 24 24 24 24 23 23 37 55 60 37 74 27 23 23 24 67 33 26 25 26 26 26 27 24 33 24 23 24 23 23 26 23 22 25 25 30 29 24 74 52 27 50 70 29 35 40 42 32 48 33 46 40 61 54 61 72 80 87 83 77 87 88 91 
83 82 80 81 82 72 78 82 81 83 82 79 81 77 65 74 79 78 41 26 37 67 48 27 22 25 65 23 21 21 22 27 47 60 29 37 20 21 19 19 19 18 20 21 52 23 20 20 19 22 39 20 21 21 20 21 19 40 27 28 61 65 33 22 23 22 48 70 24 24 23 21 22 22 23 42 23 22 21 23 23 24 23 23 22 22 25 36 23 38 47 24 31 42 33 58 57 42 26 31 69 83 78 65 65 74 84 76 62 69 82 82 82 82 
80 82 80 81 77 79 80 81 81 82 83 84 82 79 77 69 69 73 36 24 48 72 43 21 22 29 74 23 22 22 24 33 42 54 31 38 21 21 20 19 19 20 19 21 42 19 18 17 20 26 40 21 18 20 19 20 19 28 23 21 64 48 37 21 23 24 29 52 23 24 22 20 22 23 25 79 22 24 23 23 23 23 23 23 22 23 27 34 25 35 50 24 24 25 25 23 24 27 55 71 86 82 79 74 78 66 42 38 76 82 83 85 83 83 
52 71 83 81 77 83 83 84 84 84 81 82 81 80 82 84 79 66 26 24 43 67 27 24 22 27 36 22 23 24 25 29 63 38 33 34 22 21 19 20 20 17 19 31 29 19 19 21 22 26 37 20 19 20 20 20 20 21 21 20 73 43 46 25 25 22 33 55 24 25 23 24 25 21 25 57 25 24 23 23 23 24 22 22 22 31 32 29 28 31 51 28 24 24 28 25 44 53 34 59 70 71 55 44 50 45 58 77 84 83 85 86 82 83 
60 37 56 82 83 84 83 84 85 84 84 83 83 82 82 82 81 60 58 33 50 35 24 24 33 34 23 24 22 22 24 25 59 38 31 29 24 22 20 20 19 19 20 36 21 19 20 21 21 32 32 20 22 39 20 19 21 19 22 21 71 44 41 24 23 26 54 28 22 24 25 23 24 23 23 36 24 24 23 24 23 22 22 22 25 44 45 28 34 34 42 26 23 23 29 32 44 53 73 81 78 78 46 67 78 52 66 81 83 83 83 83 83 84 
82 69 55 66 81 84 82 85 83 85 85 85 84 83 82 82 82 55 76 39 40 33 25 25 47 38 25 23 26 24 24 25 44 33 27 33 31 21 20 21 20 20 23 29 22 19 19 22 22 35 30 33 22 68 27 20 20 21 21 21 92 63 46 22 28 37 31 24 23 23 23 24 22 22 24 66 26 25 24 23 23 23 23 23 50 45 56 26 46 39 50 26 25 26 26 57 68 83 89 87 81 65 61 74 54 64 80 83 83 86 85 87 85 85 
84 84 74 47 77 79 87 86 86 86 86 86 86 83 84 83 82 59 77 58 68 30 24 24 57 30 22 22 24 24 26 26 25 24 24 28 28 23 21 22 20 19 21 26 22 22 19 19 22 30 30 23 24 83 44 21 20 21 26 23 80 74 73 25 25 48 29 24 23 24 24 23 23 24 23 63 23 21 23 23 24 22 23 34 75 44 49 32 52 35 49 25 23 24 25 49 85 82 63 59 65 63 55 54 47 76 83 85 85 87 87 87 84 84 
83 83 82 50 50 70 83 82 84 87 87 87 85 86 83 82 83 66 72 62 54 27 22 24 50 27 24 24 25 24 25 27 24 22 23 23 36 24 21 19 22 21 22 20 21 26 20 20 21 41 31 32 24 59 42 21 21 19 21 22 43 56 65 25 26 57 37 28 22 22 25 24 23 23 23 45 24 23 21 23 24 23 24 63 43 46 35 53 54 37 39 24 23 23 34 51 62 42 31 47 38 29 27 49 76 82 83 85 86 85 86 85 83 87 
81 82 84 69 32 57 74 83 87 87 85 84 85 84 85 83 82 82 52 60 51 22 22 26 39 24 23 24 23 44 24 23 23 34 23 25 27 27 23 22 22 21 20 19 21 21 20 19 37 53 30 32 20 60 52 20 19 19 21 22 23 50 46 34 29 68 38 24 23 25 25 23 23 22 23 30 24 23 20 23 22 23 57 76 31 53 46 64 37 28 39 23 23 23 30 72 28 26 26 55 43 44 78 83 77 82 83 84 81 83 81 81 83 87 
85 86 85 84 42 25 45 81 86 84 85 84 84 84 85 84 82 85 76 57 25 22 23 26 31 25 24 25 24 37 23 23 32 51 25 24 21 20 20 21 22 21 21 22 22 19 20 21 58 64 34 26 20 54 64 21 22 20 21 21 20 32 35 60 35 56 60 23 23 23 23 37 30 22 24 24 40 27 24 23 23 26 94 51 55 32 48 37 42 23 42 26 24 30 33 85 24 34 47 35 28 70 83 77 83 84 83 75 71 79 85 84 83 86 
86 85 84 83 70 27 23 25 38 60 73 78 79 72 60 70 81 80 81 58 24 22 24 23 22 22 24 26 25 22 21 22 47 32 29 22 21 22 22 22 22 18 18 21 22 21 21 21 74 68 36 20 21 64 69 21 20 21 20 20 37 21 38 56 76 64 53 24 23 24 23 61 30 22 28 25 70 26 22 22 22 40 73 43 56 44 45 42 25 26 36 25 24 41 32 110 25 38 23 22 38 44 59 77 81 82 63 69 84 83 83 82 85 84 
85 83 77 71 79 68 28 22 23 25 29 40 37 35 44 26 53 74 75 40 22 21 27 22 22 21 22 45 23 21 21 21 45 25 37 23 21 21 19 20 19 20 19 21 25 19 21 23 92 63 37 22 23 61 66 22 22 22 22 22 38 22 57 40 96 51 40 23 22 24 25 74 24 23 34 29 73 24 22 22 23 50 50 33 38 46 71 33 24 40 36 25 25 35 26 105 29 26 25 47 68 83 82 81 80 71 77 82 83 85 84 83 84 81 
82 82 84 83 79 70 73 56 40 34 26 22 21 32 60 63 39 45 55 23 23 22 59 21 22 20 22 43 33 20 21 22 33 27 22 24 20 19 19 19 27 34 21 19 20 18 19 20 89 58 43 22 22 60 39 22 21 23 21 32 21 28 81 64 102 47 32 22 22 21 42 102 23 24 25 36 79 24 22 23 24 49 39 31 31 77 62 24 24 49 24 24 30 29 23 59 28 23 49 73 54 76 79 78 76 77 80 73 65 77 81 82 85 84 
82 85 85 83 84 84 68 81 73 57 51 28 22 22 23 42 73 28 27 23 22 22 45 20 22 22 21 27 63 21 21 21 19 22 21 31 24 20 19 18 26 44 20 21 21 19 18 19 81 45 40 23 21 58 46 21 20 24 25 44 23 41 92 102 85 63 46 24 23 24 80 79 23 40 28 37 58 22 23 23 24 32 23 24 57 84 36 23 28 36 23 23 42 29 24 50 26 23 27 22 34 57 48 51 64 50 47 70 82 84 84 85 85 86 
83 83 85 86 85 84 83 74 86 80 76 69 39 43 23 21 53 47 23 23 23 22 37 20 23 24 22 36 72 21 21 22 20 19 23 26 71 20 21 18 23 58 23 21 20 18 19 20 51 45 48 20 21 56 40 22 20 22 46 26 23 45 117 126 63 48 28 21 23 26 107 31 22 37 24 56 25 26 28 23 27 30 23 29 82 53 24 22 48 29 24 28 30 36 25 43 23 24 39 31 41 41 53 58 57 46 79 82 83 82 86 84 83 83 
84 84 85 85 86 85 83 72 84 83 82 68 61 70 61 24 25 40 22 22 21 21 26 22 20 22 21 26 61 23 22 22 23 22 23 27 53 22 20 18 22 66 27 26 20 19 19 20 52 64 55 22 21 47 27 22 22 23 32 21 24 60 96 120 36 26 21 23 23 54 74 22 33 27 22 29 25 55 24 23 23 24 24 50 51 35 23 24 37 25 26 31 25 27 24 24 23 23 26 35 35 60 79 75 46 76 83 86 83 84 84 82 83 83 
82 85 84 86 85 85 86 63 84 84 87 86 69 43 75 43 22 23 22 23 21 22 22 22 23 21 22 22 33 21 22 26 23 25 24 32 36 30 21 22 21 64 49 38 30 21 20 22 42 42 29 22 21 42 23 20 22 23 28 22 48 55 89 90 33 22 22 22 22 77 51 24 48 23 23 21 25 31 24 23 23 24 46 45 23 21 22 23 24 23 25 29 27 25 25 36 22 22 23 34 58 77 79 82 40 83 86 84 84 81 73 69 71 73 
82 85 87 86 87 85 87 64 73 81 86 84 83 58 41 43 22 22 22 24 20 20 21 20 21 22 21 23 28 24 24 34 45 44 30 43 28 41 20 22 22 38 80 30 34 23 21 21 36 25 22 22 21 26 21 18 27 24 22 24 66 29 68 66 28 22 32 23 27 104 36 48 78 23 22 27 30 41 23 26 27 24 30 23 23 21 23 23 23 23 35 35 36 26 33 28 23 24 23 54 69 84 85 68 46 85 85 84 68 42 25 25 39 50 
86 86 86 85 85 86 85 61 57 72 79 82 84 80 58 25 25 24 23 23 21 19 19 19 20 19 21 21 52 39 24 25 72 35 22 51 31 40 21 21 22 22 70 54 39 24 21 21 26 23 21 22 22 50 23 19 27 22 24 50 57 39 66 36 25 22 21 23 56 95 27 83 32 23 30 29 24 34 24 23 25 23 24 22 22 22 23 36 54 24 47 49 24 24 57 23 23 24 25 30 28 58 63 40 62 83 79 66 29 25 24 22 24 32 
77 86 85 84 84 84 79 48 37 46 33 29 48 67 34 65 22 30 28 22 21 19 20 21 21 21 22 23 30 121 45 25 30 39 23 37 31 29 25 22 22 20 30 84 56 30 20 18 22 27 21 21 24 69 22 21 22 21 22 58 25 48 63 27 25 21 24 25 99 61 59 50 25 23 47 25 25 25 25 25 22 23 23 29 24 25 27 60 25 25 29 28 23 26 44 25 25 25 22 27 39 25 36 43 50 61 49 27 23 40 45 40 31 26 
83 81 79 83 86 83 82 74 39 60 67 60 51 33 44 74 23 23 32 48 23 18 21 23 21 21 21 24 24 45 119 57 30 44 28 29 46 25 45 23 21 21 22 36 70 55 21 20 21 30 23 20 23 64 26 21 22 23 32 39 29 30 27 37 22 23 23 25 110 49 51 30 22 34 51 25 23 24 24 24 23 23 24 25 24 28 152 54 46 55 25 22 22 24 25 24 25 25 34 31 30 43 35 25 58 42 25 36 52 53 64 76 79 81 
84 86 82 76 81 86 85 87 61 47 75 84 76 59 28 58 29 27 23 60 23 21 21 39 20 21 25 26 89 57 37 99 61 67 85 31 31 25 38 42 21 22 22 40 28 56 20 30 22 24 37 23 22 40 30 25 22 23 55 24 31 27 23 58 21 24 24 50 93 54 36 23 23 75 30 23 21 23 24 22 22 22 23 24 23 48 61 78 45 24 23 21 22 24 23 25 26 26 85 25 24 23 22 23 22 25 47 36 52 77 84 86 87 86 
82 86 84 86 80 70 80 85 76 56 40 61 79 75 46 22 21 22 21 44 24 23 22 36 24 46 23 53 72 197 142 68 45 55 78 91 63 90 23 25 23 21 23 25 64 23 22 28 25 24 34 25 22 27 40 25 24 54 35 46 42 23 23 46 22 39 22 63 40 24 25 24 24 45 23 23 23 23 24 31 22 24 24 28 78 43 52 42 30 24 23 22 22 23 22 22 25 25 56 22 23 27 54 37 44 38 26 56 84 84 85 83 86 86 
83 86 86 87 85 86 71 59 79 68 65 47 41 64 45 24 19 19 21 21 21 21 22 21 26 52 70 55 107 183 172 127 102 101 104 134 123 80 65 43 69 49 89 34 32 69 22 22 33 35 37 56 22 23 26 22 30 65 24 57 31 24 35 28 25 71 26 40 29 29 23 21 23 23 23 24 26 27 48 43 27 35 37 88 151 153 105 47 23 22 22 22 23 22 22 23 26 22 24 54 50 71 68 76 62 30 43 83 83 85 85 83 86 83 
83 85 86 86 86 86 82 66 36 64 72 75 72 40 35 27 21 22 22 21 21 22 22 23 24 34 44 100 164 113 145 177 206 208 200 186 158 43 96 97 174 101 98 131 41 47 83 53 117 62 44 59 31 24 23 23 72 31 76 77 37 28 40 23 72 61 35 25 56 43 22 25 33 27 47 43 67 48 57 91 106 196 142 163 182 146 103 58 22 21 21 21 19 18 20 23 23 23 23 97 35 25 50 48 26 32 79 84 82 81 84 83 82 83 
84 87 86 87 86 85 84 78 50 33 46 64 81 68 42 21 20 22 21 22 23 21 24 24 21 24 48 107 134 160 145 202 215 212 210 195 69 148 178 125 197 163 143 143 178 96 99 178 170 145 65 76 37 43 25 28 59 75 106 113 36 98 55 37 83 49 28 44 36 46 30 79 118 48 60 72 201 185 67 78 197 215 218 183 192 224 189 71 30 35 24 22 20 19 21 21 23 23 22 37 25 24 31 20 28 71 85 84 83 80 68 68 78 83 
83 84 85 85 85 86 87 86 73 49 28 34 68 76 60 25 22 38 22 22 22 22 22 26 25 35 74 83 150 196 195 216 218 215 213 121 135 196 203 131 176 146 189 199 197 156 169 196 164 141 164 153 97 75 35 77 36 94 142 48 107 110 94 102 99 99 103 75 117 176 153 112 165 153 52 67 192 208 198 80 148 216 225 209 227 223 206 94 42 23 22 22 24 24 21 34 38 22 21 22 24 24 23 41 26 79 82 82 73 40 62 69 72 72 
83 85 86 86 86 85 86 85 83 47 40 21 38 49 47 26 23 56 29 23 22 22 24 22 22 24 34 84 173 201 215 218 217 217 199 91 174 206 206 134 138 189 199 199 198 162 146 173 205 145 204 203 195 126 91 121 60 48 112 165 149 81 78 175 205 207 198 130 150 205 208 206 158 190 142 43 163 208 210 176 110 187 224 221 222 229 172 79 32 21 23 46 36 24 89 43 21 22 23 27 31 26 23 21 37 41 70 51 27 50 67 79 83 84 
83 86 85 83 85 85 87 85 82 68 53 20 22 53 42 32 24 24 47 23 22 23 23 23 29 59 67 79 132 214 219 218 216 212 149 137 208 206 203 132 158 200 202 201 197 160 143 206 184 142 206 205 208 190 169 181 100 35 141 192 195 188 92 156 200 200 198 199 152 174 203 205 207 189 179 75 109 211 209 205 148 156 222 228 229 217 117 94 66 35 57 35 23 38 49 21 20 23 23 22 23 20 29 21 20 20 23 26 61 74 70 85 83 80 
86 85 86 85 83 77 64 62 65 54 52 31 21 20 29 38 23 22 24 34 24 22 23 22 25 36 61 167 235 222 221 218 218 214 136 160 207 207 205 127 194 202 201 195 192 207 167 204 173 149 201 201 200 197 196 195 143 42 138 192 193 195 159 135 174 199 195 196 196 143 194 202 206 205 191 107 55 210 201 209 193 149 192 231 238 239 216 101 31 28 24 22 24 27 23 23 22 23 66 25 41 22 39 25 22 26 47 56 53 61 85 84 85 85 
80 83 81 81 82 84 85 85 79 76 63 38 24 23 22 25 23 22 22 27 26 23 24 25 23 44 67 92 163 197 221 218 217 215 136 154 209 208 193 130 198 202 198 182 200 203 185 201 181 178 185 199 199 195 194 192 152 72 137 187 188 183 177 156 162 194 197 196 197 185 153 200 201 206 207 142 42 203 199 202 213 187 165 231 238 164 94 40 28 24 23 23 23 23 30 24 23 65 35 62 40 40 35 36 55 85 74 73 81 84 83 86 85 85 
73 70 72 77 81 85 82 84 83 82 70 73 40 21 20 21 23 23 23 22 32 42 39 38 28 31 33 39 134 207 218 216 216 214 163 169 207 208 151 174 191 195 189 199 200 201 197 193 170 197 196 199 199 198 196 193 157 65 160 188 187 174 191 186 148 189 193 194 199 196 180 176 200 205 207 184 40 190 196 207 215 214 153 231 240 140 83 121 68 45 44 35 57 46 35 23 23 24 22 24 23 29 33 36 79 86 87 86 86 85 87 87 86 86 
78 80 79 81 80 85 85 84 84 85 80 68 53 56 26 26 43 21 23 22 41 35 23 23 26 29 28 79 186 216 217 217 215 213 197 149 206 178 128 195 195 189 197 197 200 199 200 190 171 195 195 196 197 197 197 195 135 54 178 188 186 177 190 190 163 178 192 190 196 193 190 178 191 202 206 202 43 183 183 212 213 214 203 193 238 208 57 44 46 33 26 31 36 24 25 23 22 21 23 26 50 25 36 79 83 85 84 84 85 87 87 85 86 86 
54 42 51 71 79 75 83 83 86 84 82 57 33 68 58 23 34 46 23 23 26 32 25 23 26 27 43 111 210 215 219 217 216 212 208 153 156 135 187 193 192 176 191 196 196 197 199 189 197 197 198 199 194 195 194 193 94 117 186 186 188 178 190 191 182 161 189 191 196 191 190 191 180 190 198 204 44 179 195 208 215 213 219 195 221 229 108 29 23 23 24 24 23 24 26 24 46 34 24 23 29 34 51 82 85 84 87 87 85 89 87 75 81 87 
46 43 42 37 42 78 79 82 83 84 72 59 61 42 45 35 24 33 33 22 22 27 29 26 26 56 67 73 142 188 213 214 214 211 210 144 116 200 196 191 175 172 192 192 199 196 198 188 194 194 196 191 193 191 189 179 90 176 181 186 188 178 191 190 189 168 190 193 190 194 200 194 195 184 193 197 42 179 213 204 212 211 217 231 203 110 33 44 23 22 26 24 25 46 57 57 44 29 24 25 36 24 28 58 82 82 80 65 64 68 72 83 74 64 
83 81 64 51 43 33 60 77 66 67 48 68 60 54 27 23 26 20 21 23 24 24 21 21 22 25 44 114 157 186 201 211 210 212 175 140 176 191 192 184 155 185 191 191 197 196 196 172 191 192 193 186 187 189 184 129 159 181 181 182 182 182 187 185 187 175 188 197 201 198 191 193 192 189 192 179 37 182 216 213 211 209 217 230 223 94 27 24 22 22 24 42 57 55 35 25 23 25 25 23 21 41 30 29 39 38 34 50 73 73 46 33 39 55 
83 78 77 78 42 30 32 32 36 49 41 27 41 43 22 18 21 21 20 22 21 22 23 22 22 22 24 38 102 154 197 203 207 190 170 185 175 180 184 181 152 182 186 189 192 195 197 164 190 188 188 182 180 183 154 120 173 175 176 177 176 181 182 184 181 184 192 191 190 193 188 191 187 186 192 168 40 198 210 217 211 209 217 229 180 57 28 24 24 22 25 25 23 34 75 58 38 26 28 27 41 65 42 45 44 43 52 67 60 38 62 81 86 86 
82 79 78 67 60 47 28 22 23 21 23 22 21 20 19 19 20 21 22 25 33 29 22 22 22 22 24 50 114 147 189 204 206 155 174 204 183 173 185 181 157 176 182 181 185 189 188 165 185 185 186 179 178 171 98 165 170 168 169 169 173 174 173 176 182 184 188 186 185 182 180 180 181 180 188 164 49 207 210 213 213 209 215 200 195 61 27 31 25 42 26 24 23 24 25 34 33 32 26 34 139 137 55 62 69 68 59 41 51 85 84 83 84 86 
81 83 83 82 73 64 65 46 24 21 21 22 21 22 23 23 22 22 22 25 22 20 22 22 31 37 35 117 198 201 205 203 193 150 194 200 183 166 185 179 181 160 177 181 184 185 184 181 172 188 186 180 176 121 160 168 168 170 162 154 150 163 177 175 174 170 168 165 179 179 182 181 179 185 189 170 56 210 213 214 213 211 212 221 116 55 26 26 24 24 53 47 22 23 25 26 26 26 49 97 115 109 47 30 32 38 26 50 84 85 85 83 85 86 
82 85 84 82 84 67 61 79 67 37 23 23 22 37 25 24 28 33 24 22 21 21 30 30 31 37 146 219 210 203 204 205 174 173 210 208 199 170 176 169 164 148 153 161 164 165 165 169 161 175 176 172 163 129 168 160 152 138 130 142 151 161 156 155 159 163 168 176 176 178 178 178 175 184 193 167 57 210 213 213 212 212 211 233 154 55 31 24 24 22 22 27 34 29 33 34 45 49 41 21 22 23 28 21 21 26 54 81 83 83 83 84 83 84 
61 52 46 49 54 51 45 45 76 77 63 50 51 37 26 23 24 22 23 23 24 23 22 23 28 98 212 232 207 205 206 206 157 206 211 210 206 179 196 190 185 182 184 177 168 167 169 168 163 164 164 159 111 134 141 152 155 158 161 166 168 169 172 171 173 177 172 174 172 176 179 175 177 182 185 150 70 206 214 215 209 209 208 229 234 88 29 25 23 22 21 20 22 22 22 24 23 22 20 19 20 22 57 49 33 75 66 40 38 53 51 76 83 84 
83 84 78 58 62 41 24 24 29 58 77 67 50 140 135 40 37 24 24 23 25 25 23 26 45 198 231 219 206 206 211 196 168 210 211 207 201 188 209 205 192 186 185 184 182 178 184 178 181 179 173 158 98 157 165 169 173 171 170 174 171 172 174 175 172 172 175 176 177 179 181 180 183 186 191 141 61 202 214 213 211 213 210 232 237 218 54 27 24 23 20 21 22 22 21 22 23 54 20 20 21 23 32 34 23 22 28 42 58 61 45 50 75 82 
83 84 86 84 61 71 55 31 25 26 31 43 48 33 22 24 22 23 39 48 25 24 23 28 114 228 218 202 210 211 208 190 185 210 212 210 207 201 210 208 204 192 188 185 185 180 180 175 171 170 174 126 130 161 164 166 168 167 167 165 170 173 172 170 172 174 171 174 179 177 183 186 186 187 190 148 78 194 214 214 215 212 210 231 236 239 193 35 27 24 21 20 21 19 20 23 21 23 43 43 26 21 19 22 37 48 44 39 30 31 67 68 54 56 
85 84 84 84 84 55 46 30 55 24 22 21 19 21 23 25 25 38 36 23 21 23 23 29 172 201 180 176 173 188 193 194 190 207 213 213 207 204 209 210 199 191 184 178 177 175 178 179 178 178 173 100 155 160 165 162 164 168 165 170 165 172 172 167 174 173 175 177 182 182 185 189 188 192 193 164 76 177 210 215 216 214 211 230 238 238 237 156 26 25 31 23 21 21 22 22 30 46 22 44 131 129 52 47 57 71 81 83 82 73 59 68 71 74 
83 83 84 84 83 82 52 26 31 31 24 34 52 40 43 36 26 24 22 35 22 22 25 39 183 167 158 142 106 123 130 154 204 194 212 213 204 208 210 211 209 206 203 193 190 186 187 187 180 180 162 122 159 162 166 165 171 164 167 169 167 169 173 176 174 180 182 182 186 192 191 190 192 194 200 170 84 178 213 215 213 211 208 225 236 237 236 222 48 27 38 26 28 58 25 23 21 21 21 44 73 125 81 84 81 82 84 83 84 82 84 83 82 81 
82 84 82 83 84 83 80 66 44 26 27 35 33 23 25 23 23 24 50 37 25 25 27 65 196 168 179 173 143 112 91 94 129 200 213 213 199 195 209 211 210 208 199 191 191 188 192 190 189 184 155 144 165 164 168 165 175 169 163 166 167 173 174 175 180 183 185 184 189 191 193 192 196 200 210 179 90 151 214 213 202 192 192 203 190 183 167 187 111 26 27 27 25 48 33 21 30 21 21 20 24 35 54 62 65 76 81 84 82 83 82 86 84 80 
84 83 86 86 84 84 82 82 80 60 27 23 26 26 35 24 22 39 24 23 24 23 27 69 210 186 189 191 170 153 134 117 80 71 159 209 205 186 209 208 208 208 201 195 191 190 196 194 190 188 153 165 177 170 171 171 173 172 167 169 175 178 184 182 186 187 189 186 192 194 193 195 198 209 207 188 100 116 195 164 120 108 113 127 153 157 180 195 177 28 25 26 27 30 24 23 22 20 20 23 25 44 60 51 38 27 62 82 83 85 81 81 82 85 
82 82 83 84 85 85 84 83 78 39 27 61 155 136 34 22 23 27 24 23 22 23 26 62 217 197 198 199 195 186 172 162 124 60 65 119 163 174 208 209 209 206 200 196 192 189 192 193 192 192 168 166 185 176 170 170 172 173 165 172 181 184 185 193 187 185 187 186 187 190 196 199 207 211 209 201 98 46 77 80 106 136 128 129 160 192 198 210 218 45 26 25 24 32 37 27 22 30 60 22 22 22 22 23 24 32 40 67 82 83 85 83 82 82 
82 82 83 82 85 82 82 83 66 44 69 100 158 58 24 23 26 23 23 22 23 20 24 51 213 205 200 204 201 200 200 199 185 136 72 73 72 128 196 201 206 206 198 196 193 193 192 188 192 191 185 167 191 181 174 174 172 171 166 173 185 192 202 200 186 185 186 189 189 193 198 210 209 208 165 109 55 29 75 115 160 162 178 209 210 207 208 218 227 90 26 25 37 26 29 72 25 26 143 142 36 43 51 38 21 25 35 52 66 78 72 71 82 85 
80 82 84 82 83 82 82 82 40 53 71 59 82 31 24 23 26 24 40 26 20 22 24 60 203 202 193 200 202 198 205 209 208 188 125 82 74 59 103 143 185 206 205 197 193 192 192 190 192 196 200 177 194 181 170 175 178 169 164 175 186 191 206 198 186 186 187 190 193 196 197 207 188 133 75 68 73 30 85 180 202 204 196 199 204 210 212 224 228 120 29 24 25 41 25 40 47 51 44 112 113 48 54 45 70 45 27 46 49 53 72 83 84 84 
80 81 82 84 83 83 83 69 33 51 60 47 37 23 24 28 31 35 80 20 23 22 32 88 206 221 203 189 200 197 204 205 206 199 183 125 98 76 60 73 87 167 202 200 195 192 191 194 193 193 192 177 193 180 173 178 185 173 167 181 187 188 195 186 186 187 188 192 196 199 198 157 88 53 76 69 85 78 75 196 188 185 176 199 207 211 220 225 223 113 25 25 23 22 36 25 23 41 42 29 56 34 45 81 81 81 75 74 72 83 85 83 85 84 
83 82 83 81 83 84 77 84 67 54 79 55 29 30 25 75 56 94 39 22 21 23 28 68 198 222 225 192 155 179 204 206 203 191 173 162 141 95 65 60 67 68 138 192 198 194 196 194 196 195 192 188 181 185 172 181 184 174 172 183 188 188 185 187 183 188 192 198 197 166 110 82 53 53 76 130 169 135 48 173 179 183 191 202 208 206 226 227 228 116 26 25 23 23 21 24 21 25 24 49 80 75 51 82 83 82 80 81 82 80 83 81 86 84 
81 82 82 84 83 80 80 85 81 56 47 38 50 34 118 82 66 65 25 23 23 23 25 33 177 224 231 219 181 129 143 185 201 206 203 181 159 142 88 64 71 65 68 111 165 197 198 200 202 195 196 190 186 186 171 176 180 179 173 182 191 187 185 185 184 187 180 149 125 62 58 66 50 72 127 137 145 164 42 190 204 193 163 174 190 221 228 228 227 108 26 25 24 23 23 20 24 66 24 35 77 57 40 48 63 73 80 80 84 84 84 83 85 87 
84 84 82 83 82 83 76 51 29 22 22 27 24 31 27 22 23 24 24 23 23 24 25 36 161 222 226 233 214 163 96 73 99 121 153 183 190 184 156 83 71 70 58 67 87 140 188 198 198 199 200 201 193 189 170 177 179 178 175 184 203 189 178 173 163 144 104 63 55 57 47 54 65 118 155 175 197 199 60 113 104 80 104 191 226 227 230 231 230 117 25 24 23 23 21 23 23 58 96 27 33 42 48 44 53 53 62 82 86 84 84 84 86 84 
81 82 83 82 81 50 24 23 23 28 41 40 26 23 23 22 33 23 23 27 24 23 23 45 98 209 227 234 236 217 186 143 117 146 126 99 90 110 143 164 117 71 75 59 71 90 121 156 189 200 204 206 198 191 168 180 181 179 174 183 201 185 134 87 91 82 54 57 78 52 64 101 154 156 135 109 95 85 57 78 82 109 192 226 236 236 233 227 230 116 27 24 23 22 22 26 50 31 41 59 41 53 49 66 66 72 68 59 83 82 84 86 87 84 
80 83 84 84 51 23 32 37 73 73 30 35 28 36 33 92 39 32 44 27 23 25 26 43 155 128 228 237 237 228 208 173 166 228 228 197 130 93 59 51 83 103 95 80 79 91 79 86 105 160 194 204 191 178 175 176 181 179 167 172 184 92 59 57 60 68 54 60 61 70 80 78 56 50 89 108 179 219 167 107 138 178 209 231 235 239 237 229 229 87 24 23 24 24 25 41 50 64 61 39 23 47 60 49 57 81 80 51 80 82 82 84 87 84 
82 80 82 77 38 45 57 79 75 37 52 74 61 90 130 37 60 51 46 27 23 26 27 33 152 152 190 236 240 232 211 187 162 210 242 239 167 117 66 41 83 69 83 66 85 92 79 84 71 79 126 148 145 163 174 181 178 186 169 142 105 63 55 49 53 60 69 77 52 98 85 84 53 47 162 139 205 240 200 99 164 196 213 235 239 239 239 231 211 39 23 23 23 22 24 50 80 45 91 153 66 44 26 42 41 66 80 76 63 82 86 85 84 83 
83 83 83 71 37 55 68 79 55 63 71 41 51 113 94 37 34 28 46 21 24 25 26 73 147 177 143 237 239 236 210 190 181 163 234 239 215 187 119 96 117 119 165 130 61 103 102 81 79 68 87 100 130 172 170 169 172 186 188 159 110 76 78 80 86 102 70 63 139 166 143 150 100 94 159 208 242 240 147 104 185 197 217 234 239 241 240 232 164 30 23 23 54 22 25 40 99 76 54 86 85 84 62 38 40 45 76 80 81 70 76 77 79 82 
81 84 83 73 45 57 80 81 54 85 80 65 58 68 188 165 100 42 33 26 33 39 26 81 216 127 147 229 240 235 214 190 181 176 160 201 206 188 168 159 155 169 180 166 130 63 117 137 93 112 140 160 171 175 168 149 153 163 189 189 165 132 141 151 131 76 66 137 166 172 163 143 141 138 156 198 218 149 145 126 190 206 214 234 239 239 239 223 117 68 24 25 46 22 37 47 53 168 53 64 85 81 81 72 47 24 54 77 81 85 84 85 87 83 
81 83 81 74 37 66 81 80 76 84 76 79 82 83 172 204 100 89 61 26 33 25 28 79 216 214 100 200 241 235 219 190 170 173 174 157 156 178 177 176 162 148 141 130 109 95 125 121 159 159 171 177 182 185 159 156 153 160 171 193 185 160 157 147 100 111 86 106 144 168 182 190 182 185 175 161 130 164 189 130 174 208 219 236 241 240 237 206 79 32 26 25 26 23 23 44 43 101 54 67 83 84 85 78 80 46 35 74 71 86 83 84 85 85 
83 82 84 71 35 76 84 81 83 81 78 85 82 65 87 196 93 90 40 23 24 24 30 77 217 225 186 142 238 236 227 204 186 169 162 159 156 151 146 142 142 136 123 122 131 148 152 144 178 165 171 186 196 197 164 162 167 165 167 192 194 173 168 146 159 133 136 126 123 122 126 135 132 134 148 168 187 197 181 153 152 215 224 239 242 241 237 163 72 56 30 36 91 23 23 23 58 43 47 66 81 83 84 84 78 84 47 60 72 78 85 85 85 88 
84 85 85 59 57 83 82 80 82 77 65 52 46 68 60 99 71 34 23 23 23 26 29 72 209 223 230 103 218 239 236 220 202 191 173 160 147 140 133 140 138 141 141 152 163 178 196 203 192 162 179 202 207 193 163 155 166 171 168 195 205 177 164 183 193 168 146 150 143 143 145 152 160 166 161 152 165 179 187 161 145 218 222 238 243 242 238 114 147 46 41 50 77 26 27 27 28 40 69 45 72 87 86 83 81 83 83 57 73 74 82 87 87 86 
82 78 58 43 74 49 40 38 37 29 34 55 61 51 64 48 36 27 25 23 22 27 30 63 205 220 230 137 151 240 238 226 210 196 179 172 162 167 160 163 162 164 171 176 188 195 207 196 163 174 191 203 209 183 159 163 168 170 175 197 205 185 161 177 202 206 170 155 151 155 149 151 157 159 161 167 174 190 205 166 146 219 223 239 243 240 229 91 184 34 43 53 63 63 118 43 30 30 46 45 61 79 87 84 86 83 85 86 82 73 60 58 66 82 
76 59 46 53 39 49 59 71 83 78 78 76 67 73 84 53 99 30 76 22 24 27 30 56 202 216 222 138 101 239 238 229 218 212 200 182 172 172 173 180 183 184 188 196 202 209 192 168 165 176 197 203 203 176 154 163 165 170 176 198 203 200 170 163 180 200 210 197 178 168 161 165 166 169 175 181 189 207 215 188 129 220 224 241 241 232 210 128 176 31 39 35 38 90 178 89 58 58 49 36 36 67 84 86 86 87 83 87 85 84 87 88 82 77 
59 66 61 70 83 85 83 83 84 86 85 86 81 76 72 60 66 63 111 24 25 34 26 52 202 216 218 155 91 237 239 233 223 215 207 200 192 191 188 193 199 199 200 199 181 172 168 162 171 181 204 209 197 176 165 168 167 173 178 195 205 206 189 170 166 173 184 201 208 208 205 197 195 196 200 204 208 208 215 207 102 215 229 235 230 221 165 154 156 30 29 40 39 129 133 103 68 40 60 79 64 33 59 84 83 87 83 85 86 87 89 89 89 88 
80 68 81 82 82 81 83 83 82 83 74 70 70 58 38 27 40 85 106 22 25 26 26 39 191 210 211 158 100 232 239 233 225 218 206 204 198 195 196 196 200 209 187 160 159 162 167 167 177 194 211 208 192 173 162 165 164 169 174 193 205 207 194 176 164 168 170 170 183 200 214 212 211 212 207 206 204 205 209 211 81 206 222 227 217 208 129 173 148 31 29 30 42 177 109 110 71 53 76 84 77 63 33 60 83 83 85 85 86 88 87 87 89 88 
78 81 82 84 83 84 84 83 80 55 64 67 64 49 50 50 59 70 58 23 25 51 26 31 161 203 215 159 116 228 237 233 225 218 211 202 198 198 200 198 195 173 155 157 155 163 165 175 181 201 211 205 190 169 156 162 159 164 174 191 203 209 203 184 172 165 171 162 155 176 190 209 209 206 204 205 203 204 208 204 78 186 216 213 205 200 108 179 131 31 32 27 40 125 113 123 107 50 74 85 85 78 59 27 61 73 77 78 82 85 85 83 84 84 
82 82 82 82 83 83 80 72 49 70 60 54 60 52 47 50 40 34 27 24 59 150 26 29 131 191 210 149 126 221 225 229 223 218 211 205 199 196 195 192 163 147 149 153 155 157 165 174 184 206 213 193 186 165 150 150 155 162 174 187 197 203 209 198 175 171 171 167 152 162 163 179 198 201 198 198 201 200 200 196 78 167 203 197 196 192 99 192 120 38 33 28 49 34 59 103 104 67 55 83 84 82 77 42 66 86 84 84 84 85 84 83 82 83 
82 82 84 83 83 83 78 67 39 57 77 85 84 84 84 80 78 75 30 25 80 114 50 27 97 166 188 128 125 217 225 226 215 210 203 201 198 189 180 168 156 149 149 150 153 162 169 177 184 205 196 190 187 156 147 143 159 167 174 189 195 198 209 203 187 179 172 165 162 164 158 167 179 190 192 191 189 193 193 182 62 167 191 194 195 192 122 194 100 54 45 25 59 43 29 26 39 72 66 68 80 84 82 52 69 84 83 83 83 84 84 83 84 85 
83 82 82 81 82 79 80 52 60 82 82 83 85 85 83 82 80 44 26 44 101 89 39 29 74 199 202 142 128 187 213 217 215 205 199 199 193 183 176 170 154 154 157 158 156 164 171 177 190 199 186 187 185 168 148 145 162 169 178 186 194 200 208 204 188 177 176 174 174 162 164 155 162 177 183 185 188 191 188 169 58 181 188 189 194 189 135 180 81 81 31 25 35 105 60 33 23 39 47 64 72 76 85 70 70 84 82 81 81 82 81 82 82 83 
81 83 84 84 83 84 63 65 81 84 84 83 78 76 78 76 45 25 56 64 148 110 26 34 44 209 203 147 166 189 179 195 210 205 197 190 184 178 173 164 161 165 165 161 165 170 173 181 193 190 186 187 184 171 152 145 162 163 178 185 190 197 199 201 186 183 181 178 180 173 160 153 150 162 173 180 181 178 182 146 79 179 185 190 185 166 133 170 55 44 36 72 71 63 81 45 26 55 67 77 70 73 70 80 62 81 83 81 80 80 81 83 83 83 
82 84 83 82 81 63 78 83 82 82 68 51 49 47 29 26 25 38 50 47 84 24 41 26 29 178 210 138 180 194 196 189 188 194 195 191 181 176 172 166 168 167 163 160 166 169 174 181 188 187 187 186 191 171 147 146 159 167 180 185 189 193 197 200 194 183 186 181 181 173 166 164 156 160 168 172 173 173 176 113 114 169 184 186 189 126 148 176 66 26 102 83 94 79 104 64 32 64 80 84 81 74 81 77 79 67 81 83 81 80 82 83 86 83 
82 82 82 83 71 78 82 85 83 68 46 64 62 47 41 36 38 31 26 36 86 95 80 24 29 144 216 141 195 201 198 196 199 192 186 187 181 174 172 169 168 163 165 167 170 169 175 185 186 187 187 190 193 172 141 142 160 169 176 186 193 193 200 200 193 186 187 185 182 177 168 167 160 163 165 173 173 173 172 82 159 170 181 186 186 134 154 187 53 27 53 44 116 96 86 48 34 40 50 70 79 80 79 82 84 83 68 75 79 82 82 82 83 84 
83 82 81 80 59 75 72 66 57 43 54 39 30 47 41 26 43 43 36 22 41 88 91 26 37 104 218 151 184 203 198 195 197 192 190 184 183 174 177 177 169 166 167 165 169 171 179 188 187 187 187 193 195 171 142 152 157 167 173 189 200 202 204 205 198 187 187 189 186 178 171 168 166 165 170 172 177 176 150 93 170 175 183 191 163 164 163 188 43 85 42 26 67 85 38 32 22 50 72 62 51 66 69 78 82 81 80 81 81 80 82 82 83 85 
81 81 82 82 71 81 83 83 72 66 72 47 74 49 38 78 80 73 74 71 76 48 72 32 36 67 224 190 163 208 199 194 193 190 189 189 185 180 174 174 171 173 172 169 174 178 186 193 188 187 191 199 193 168 145 151 156 164 168 186 201 203 203 203 189 188 186 188 189 183 176 173 168 168 171 170 171 172 109 148 169 182 190 195 148 189 160 181 42 50 96 29 26 27 34 55 39 41 78 81 77 72 71 71 76 80 81 81 82 82 83 84 81 83 
83 83 83 82 82 80 79 82 77 65 45 82 60 37 79 82 77 81 81 76 67 51 142 43 38 37 213 226 134 216 208 199 196 189 184 188 184 176 182 176 172 177 173 176 181 177 180 188 188 192 193 197 191 164 146 148 152 164 171 188 198 203 206 197 187 190 190 188 187 183 181 173 168 172 174 170 173 172 98 176 174 189 198 166 160 216 177 154 30 23 23 35 27 24 44 70 74 43 38 55 67 72 82 83 83 81 80 81 81 81 83 83 85 85 
82 82 82 83 82 83 80 80 82 50 67 84 46 65 82 82 75 78 81 80 69 89 64 33 58 39 178 234 134 210 217 203 194 185 185 188 184 181 179 179 174 179 175 178 180 177 179 187 191 191 198 201 184 161 147 151 155 156 164 183 198 203 204 194 190 189 188 188 190 186 179 176 172 177 174 174 176 143 133 179 184 204 189 145 206 223 193 135 48 33 31 37 29 37 49 64 54 51 58 66 69 61 47 54 80 81 78 81 80 81 83 81 82 82 
82 83 82 83 81 77 76 83 77 40 65 61 43 54 77 83 81 68 82 69 94 39 64 46 79 60 174 236 204 163 219 209 199 188 189 187 185 183 178 181 180 178 178 178 175 177 182 184 190 193 197 193 167 147 143 150 151 157 165 184 195 204 199 193 189 189 186 191 191 190 184 179 178 177 177 180 178 109 165 180 194 209 154 198 229 227 199 129 38 102 32 29 44 26 41 32 68 79 79 77 78 65 52 37 53 79 80 81 80 81 81 80 82 82 
81 81 82 81 85 82 75 80 58 50 78 69 51 57 53 59 69 56 53 76 47 84 106 27 73 141 177 236 235 168 212 215 203 192 187 188 186 187 183 181 183 186 184 184 173 179 183 185 175 184 196 189 158 143 145 151 156 158 170 182 189 204 188 181 188 188 187 191 198 191 187 184 180 179 178 177 161 123 174 178 190 167 206 231 236 225 195 178 91 55 49 65 68 40 50 33 32 34 36 50 71 78 63 52 31 78 82 79 79 81 79 80 83 81 
81 80 83 84 80 83 72 80 48 60 63 61 57 64 70 61 48 68 55 34 73 144 37 27 80 187 187 227 236 229 165 219 207 196 188 191 188 184 181 181 184 186 185 183 177 182 185 177 161 183 194 179 147 149 163 170 169 167 173 176 187 198 191 181 187 187 186 188 194 194 197 184 179 180 180 176 120 167 178 182 161 194 227 236 238 222 196 176 66 104 84 39 23 22 22 34 31 23 20 21 30 49 65 66 41 81 83 80 81 82 81 83 81 79 
82 83 82 82 84 84 69 47 57 83 82 82 79 75 67 63 55 38 34 53 57 46 100 61 77 204 197 205 238 238 202 198 206 197 193 193 187 182 184 180 188 190 188 182 184 185 178 160 177 194 191 156 139 150 169 178 189 183 182 178 188 192 197 190 178 186 189 190 200 201 199 191 182 186 186 167 131 176 179 147 182 221 237 239 239 209 198 129 26 78 90 120 44 24 23 54 79 74 39 49 35 28 42 73 48 78 80 81 81 82 83 80 79 71 
83 81 82 81 83 80 45 52 79 79 78 82 83 82 83 82 81 76 59 79 92 59 49 23 39 220 181 205 238 238 229 208 194 197 196 191 185 184 184 181 191 192 185 182 181 179 162 143 169 185 172 150 138 156 177 190 193 194 189 183 184 176 182 172 166 183 188 195 199 204 201 187 176 180 178 137 167 153 151 181 194 219 236 238 231 197 206 128 27 52 89 81 71 50 25 35 41 76 74 48 67 61 33 46 49 80 82 81 80 78 79 73 61 78 
78 78 82 83 65 54 72 75 70 82 80 81 83 79 82 83 82 80 76 83 25 20 20 22 28 209 193 210 230 229 231 213 192 195 194 190 187 184 182 186 194 196 190 190 183 176 143 131 139 140 136 126 138 160 183 195 202 200 187 176 162 156 154 158 153 178 192 195 204 205 202 191 183 182 175 118 147 171 179 186 187 206 230 229 218 193 225 108 25 23 21 25 86 74 123 78 40 42 82 40 56 75 74 52 54 57 75 76 79 66 61 66 78 79 
81 82 79 69 76 73 79 81 70 65 80 79 78 79 79 82 81 125 56 23 20 19 22 24 26 195 230 206 220 211 208 202 193 193 192 190 187 186 182 189 195 192 193 195 190 176 141 137 144 148 137 130 152 166 179 185 206 196 168 162 155 155 155 150 155 186 199 200 200 202 201 190 178 182 171 145 175 175 181 187 189 207 203 208 200 198 228 92 25 23 24 23 24 25 130 110 53 41 64 49 52 73 82 81 72 46 66 68 66 70 75 79 79 79 
80 72 68 83 82 77 83 82 82 59 56 67 78 79 79 80 85 68 22 21 22 22 22 21 26 162 235 207 204 184 187 202 196 192 190 189 189 188 193 200 198 195 191 192 189 186 154 143 176 171 155 148 148 149 166 165 155 154 156 151 159 176 180 183 157 193 198 201 201 200 200 196 182 184 149 173 178 178 179 182 183 198 194 190 187 200 233 77 26 22 22 23 22 24 73 142 87 55 41 35 64 76 78 80 81 80 71 66 70 77 79 79 79 80 
76 70 80 82 81 74 81 82 82 79 68 61 63 63 63 72 78 23 22 20 20 22 22 23 27 135 234 215 185 172 193 197 188 190 193 195 189 192 200 204 199 196 191 193 190 192 174 118 160 133 141 154 152 134 139 133 136 138 140 148 132 125 171 150 160 210 207 202 200 202 203 196 184 185 140 182 182 175 180 183 176 187 186 189 181 209 242 70 26 23 22 22 21 22 25 105 123 55 38 25 52 74 81 81 83 81 79 79 80 79 79 80 80 82 
68 82 81 82 83 75 82 82 83 82 78 73 61 59 66 87 25 23 22 22 21 22 22 23 26 116 235 221 179 172 180 191 183 192 195 198 197 198 201 206 199 196 195 199 199 201 197 137 87 101 99 76 124 152 138 146 147 148 148 90 97 129 109 138 203 213 210 205 204 206 204 199 183 185 149 186 181 175 179 180 174 175 182 177 194 229 241 54 28 24 24 23 25 24 24 30 43 38 26 43 78 81 82 82 81 79 79 80 82 81 80 82 83 81 
65 83 83 82 87 81 77 82 84 83 83 81 78 76 70 96 22 24 23 22 22 23 22 23 26 113 234 224 172 160 176 188 189 192 196 205 204 204 209 209 204 202 201 206 205 206 208 196 112 74 67 71 70 155 143 147 146 151 88 67 64 71 119 197 209 212 211 210 204 203 206 206 195 189 153 190 181 178 182 178 177 180 164 181 217 240 236 48 26 24 24 26 26 25 23 89 94 40 56 59 56 75 81 77 82 80 81 81 81 83 80 81 80 82 
73 82 81 83 84 83 80 80 83 83 81 83 84 81 89 46 23 22 23 22 22 23 23 24 27 80 234 230 191 157 178 185 192 201 207 221 218 215 214 212 206 205 208 210 211 213 210 203 159 71 66 70 68 100 117 116 102 76 74 79 74 79 179 209 208 212 210 213 209 206 206 208 202 198 157 192 188 184 181 179 177 179 170 197 239 242 237 44 26 22 24 22 24 24 24 89 87 47 68 82 65 74 70 73 68 82 81 82 81 80 85 82 82 85 
81 81 81 83 83 81 81 80 80 82 82 84 82 86 87 23 23 21 23 23 23 21 20 24 26 106 195 233 205 169 169 172 194 210 217 225 225 220 214 210 212 208 208 208 207 202 191 169 152 86 60 63 56 61 59 61 62 74 81 96 83 95 163 172 180 189 183 200 198 198 201 205 207 201 156 194 192 187 181 179 175 169 172 221 243 241 234 40 26 24 23 23 24 23 25 81 90 49 65 84 82 68 75 67 68 81 83 84 83 80 80 82 79 82 
81 82 83 81 83 83 83 82 83 83 82 83 83 100 32 23 21 20 21 23 21 21 21 24 24 80 148 230 205 183 153 157 192 213 220 227 226 221 218 212 187 176 176 184 182 169 162 159 141 119 73 72 57 61 75 90 83 87 91 113 115 128 154 154 157 155 145 150 161 163 169 182 202 206 163 196 193 187 179 170 166 161 199 233 240 241 228 34 27 22 22 23 22 23 22 61 98 60 55 80 82 82 69 71 56 77 80 79 78 79 79 80 79 81 
79 81 83 84 83 83 82 81 84 82 82 84 87 57 23 21 23 22 21 21 21 22 22 21 22 40 179 172 209 168 166 138 184 209 216 224 225 221 218 181 129 147 145 134 139 153 151 142 136 117 115 111 89 102 105 120 114 108 116 116 115 132 148 154 135 142 148 152 150 142 151 144 177 210 184 186 197 184 178 166 159 172 222 237 239 238 223 29 24 22 22 23 23 23 21 42 101 81 58 58 82 81 80 74 74 58 80 78 78 79 79 79 81 78 
78 83 83 83 84 82 83 82 80 80 83 81 91 29 21 20 22 20 20 21 21 22 21 21 22 33 159 140 182 170 179 146 164 199 215 222 223 221 200 139 136 128 130 135 143 152 153 139 133 120 117 118 137 144 133 142 129 135 149 145 134 132 146 141 142 122 131 136 143 115 131 135 159 210 209 162 196 185 177 157 162 193 227 239 239 237 170 26 24 23 23 24 23 23 22 31 106 79 74 47 64 80 81 81 74 68 74 81 80 80 80 80 81 80 
76 78 81 81 82 82 82 82 80 80 83 82 102 22 21 19 21 19 20 20 19 19 21 20 19 25 62 122 191 189 181 166 145 186 203 221 220 220 193 138 115 142 159 162 165 156 169 157 158 148 154 161 170 157 154 154 157 166 166 169 171 180 173 157 151 141 131 148 160 139 119 140 170 215 214 164 190 187 173 149 167 214 234 240 239 233 98 27 23 23 23 22 24 23 22 23 96 79 61 72 45 77 79 80 78 67 75 80 78 79 80 79 79 78 
76 78 81 81 81 81 81 81 80 79 81 106 44 21 19 19 19 20 19 20 19 19 18 18 21 27 84 90 189 192 175 163 142 151 193 211 220 217 181 143 178 175 162 175 164 158 140 141 134 130 120 110 114 132 150 150 147 136 141 150 150 153 150 166 171 163 156 135 147 182 156 135 177 216 218 186 179 178 155 152 191 223 238 241 239 170 115 28 22 22 21 21 23 23 22 21 61 84 72 78 40 79 80 79 78 73 73 75 80 79 80 80 80 79 
78 78 78 79 78 81 80 82 79 77 103 49 21 19 20 21 21 20 20 19 21 20 19 18 20 29 113 123 194 191 167 162 157 137 169 202 218 218 183 160 192 206 187 152 115 107 97 90 84 85 90 95 98 105 127 139 132 124 113 102 111 115 112 110 114 110 133 174 200 206 175 135 177 215 217 209 174 168 147 177 206 231 239 239 215 129 105 37 23 23 24 23 23 25 23 23 36 110 78 71 61 80 79 80 82 79 72 80 78 78 80 82 79 80 
75 80 79 79 78 79 78 80 79 102 50 22 21 19 20 18 22 19 21 20 18 19 19 22 21 27 95 135 225 203 168 166 159 153 139 185 214 217 189 156 184 207 207 202 185 154 136 144 139 142 140 130 128 116 111 116 120 126 141 149 152 157 155 159 165 180 200 208 208 209 171 136 185 217 218 197 154 144 144 182 212 231 239 238 152 224 217 51 23 24 23 22 21 24 22 24 23 67 90 63 77 78 77 78 79 78 77 81 78 78 80 78 79 79 
74 77 78 79 79 79 78 77 97 60 20 20 19 18 19 22 20 22 21 20 18 19 18 19 19 28 53 186 225 209 175 169 162 156 140 164 197 212 184 153 188 210 209 206 196 191 187 183 170 156 152 154 157 158 158 158 157 159 161 164 163 170 190 199 201 204 205 208 209 208 170 138 188 215 212 176 133 131 159 190 223 231 239 199 185 236 207 45 23 22 23 24 22 21 22 24 23 22 72 78 76 79 79 78 80 78 78 78 79 79 79 78 79 78 
75 77 77 78 78 78 82 102 61 22 21 19 19 19 20 22 22 19 19 20 20 19 19 19 22 35 49 174 230 203 174 169 159 160 152 125 177 199 180 160 187 213 210 207 206 197 189 193 178 161 163 166 164 164 165 163 163 169 184 193 169 172 192 190 200 208 215 211 210 211 175 139 200 215 195 156 120 142 172 201 227 232 239 174 223 236 191 32 22 22 23 22 22 23 22 22 21 21 21 32 81 80 78 79 77 79 79 81 79 80 78 79 79 79 
76 75 77 79 78 83 108 67 24 21 21 19 17 19 20 22 19 20 19 19 19 18 18 19 21 44 66 104 163 189 171 158 161 162 154 125 139 187 179 164 188 212 213 210 209 207 195 180 164 154 154 167 169 167 157 165 161 160 156 155 154 154 166 193 208 214 216 212 211 213 170 147 200 194 161 123 124 163 178 213 227 232 238 192 233 234 158 27 23 21 22 23 20 21 22 22 23 21 21 20 35 94 77 77 78 77 77 76 77 77 77 78 78 78 
74 75 79 80 102 135 71 20 19 21 21 20 19 19 20 20 20 21 18 20 21 19 18 20 21 51 103 178 172 138 169 160 162 161 160 143 116 164 164 171 187 211 215 213 213 210 210 202 164 137 117 105 101 102 110 115 115 101 106 108 128 153 197 209 209 213 216 215 214 216 171 148 192 176 132 127 124 163 192 225 226 231 240 230 233 230 131 25 22 21 21 23 20 20 23 22 22 23 23 20 20 44 94 80 79 79 77 78 78 80 79 78 78 78 
74 75 81 136 143 56 22 19 18 19 21 20 19 18 19 19 18 18 18 19 21 22 19 20 22 46 94 197 221 179 143 159 161 166 165 154 130 122 143 171 183 215 218 218 212 204 208 210 199 184 169 151 139 127 117 121 121 124 136 166 189 201 209 212 208 209 218 218 217 211 168 149 165 147 112 131 120 164 211 225 224 222 235 237 235 224 120 27 22 22 21 22 21 20 22 23 23 24 22 22 22 21 56 98 80 79 79 78 79 79 79 82 79 79 
73 78 154 112 29 18 19 19 18 18 20 20 18 19 19 19 18 18 21 21 20 18 20 20 22 60 78 158 220 202 172 130 149 167 173 158 144 119 131 163 172 205 215 218 211 204 201 196 195 195 187 181 174 172 166 158 156 166 178 196 202 205 207 206 207 213 221 220 216 211 169 141 152 119 114 133 113 176 224 227 222 218 225 231 237 214 117 25 23 23 21 22 21 23 22 22 22 23 22 21 19 20 24 79 94 77 77 78 78 78 79 79 79 78 
76 75 52 21 17 18 18 18 19 18 18 18 18 19 19 19 18 17 18 19 18 19 17 20 22 108 69 124 221 202 177 161 163 167 169 161 152 131 96 128 149 182 202 214 209 203 197 192 186 181 172 169 162 158 155 153 163 171 178 190 192 197 197 201 207 216 218 217 218 200 160 148 119 117 118 136 117 194 225 228 217 217 224 229 230 200 107 25 23 22 20 22 23 22 23 22 22 22 21 22 19 20 22 22 78 96 78 77 78 79 79 78 79 81 
64 63 31 19 19 20 18 19 20 18 19 20 17 19 21 20 22 18 20 19 19 18 18 20 24 112 118 101 215 199 174 162 162 170 172 172 158 142 114 85 137 162 186 198 199 199 196 194 189 180 173 169 165 158 157 151 161 169 170 182 187 194 201 203 206 214 216 216 207 172 134 126 107 113 136 127 117 206 223 226 206 213 222 227 227 191 94 23 21 23 21 23 22 22 22 22 22 21 22 22 21 20 22 23 23 71 105 79 79 78 79 78 79 80 
49 64 38 19 20 20 20 20 20 22 19 20 20 20 20 20 21 21 21 19 20 21 22 23 24 122 143 83 191 202 178 157 157 167 170 169 155 144 133 87 104 142 164 180 179 185 185 182 185 169 164 159 151 160 142 157 151 160 164 175 173 184 189 194 194 212 211 208 174 147 116 106 104 127 139 111 149 217 227 221 201 207 216 224 222 184 74 22 19 21 21 21 22 23 22 22 22 22 23 22 22 22 21 20 22 23 47 109 86 79 78 78 83 81 
58 62 48 21 19 18 19 20 19 21 20 21 20 19 21 22 21 22 20 20 20 22 21 23 26 115 129 94 167 199 182 160 160 166 172 172 153 147 132 119 80 113 143 158 166 171 163 168 161 155 143 147 139 148 134 150 151 153 157 161 172 175 174 175 194 199 199 172 134 128 97 91 118 133 141 113 173 223 223 217 200 205 212 223 212 180 66 22 21 20 19 20 20 21 21 22 23 23 26 25 22 21 22 21 20 20 22 31 95 98 81 79 78 79 
58 61 59 23 19 20 19 20 21 21 19 19 18 20 20 19 22 21 20 20 20 20 22 24 28 126 124 126 161 179 184 163 160 167 173 173 163 146 136 123 100 62 116 121 131 152 147 153 150 143 126 139 127 130 118 131 140 142 150 150 159 146 163 156 170 181 168 137 117 91 83 106 122 144 125 138 179 213 220 209 202 206 214 222 207 173 59 22 22 22 20 21 22 21 20 21 22 24 24 22 23 23 22 23 21 22 21 21 23 69 109 86 79 79 
60 65 61 21 20 20 19 18 18 19 18 18 19 19 18 19 20 20 21 20 19 19 21 24 26 116 116 141 184 171 182 160 155 165 171 169 164 149 139 128 121 68 54 74 94 115 137 130 132 133 125 129 116 124 110 115 136 135 138 139 141 139 142 148 152 145 131 105 90 75 96 121 130 138 126 152 193 212 213 199 202 208 216 225 198 166 54 21 21 21 20 20 20 21 21 20 23 22 22 22 22 22 22 20 22 21 21 19 21 20 33 89 101 80 
60 66 63 36 21 17 19 19 18 17 17 19 18 18 18 19 18 19 18 19 17 18 17 21 25 109 125 126 184 164 175 154 152 166 164 165 161 149 140 130 126 104 70 57 57 74 105 109 118 120 122 130 116 106 111 130 111 145 135 123 129 117 134 119 117 111 96 81 74 90 117 130 137 120 144 164 193 209 192 190 202 208 217 226 193 160 52 22 18 19 19 20 18 19 20 18 20 21 21 22 19 20 18 20 21 20 18 18 18 17 18 18 43 89 
58 60 59 45 20 20 18 18 21 19 18 18 18 19 19 18 17 17 17 17 17 17 19 19 21 86 142 88 167 162 164 150 148 155 161 162 156 141 138 135 131 122 91 74 56 78 91 101 112 126 114 133 115 108 103 106 115 130 134 129 118 110 118 104 92 82 72 63 78 111 120 131 126 132 152 182 198 202 183 188 194 206 216 225 185 146 57 19 18 16 15 18 19 19 19 16 18 19 21 18 18 19 19 20 20 20 17 17 17 16 16 13 19 22 
65 64 66 66 44 42 44 45 45 42 42 42 43 42 43 42 42 40 41 41 42 42 43 43 45 70 106 94 105 120 113 113 107 116 116 119 118 114 107 106 104 100 91 79 67 67 66 81 86 95 102 99 92 85 92 90 94 95 99 92 95 87 84 83 77 68 61 73 85 96 101 103 102 114 124 135 144 142 136 136 144 150 153 160 134 116 61 42 42 42 41 41 43 42 42 42 44 41 44 44 44 44 43 43 43 43 42 41 41 42 41 42 42 43 
77 77 77 77 77 77 77 77 77 77 77 77 77 77 77 77 77 77 77 77 77 77 77 77 77 77 77 77 77 77 77 77 77 77 77 77 77 77 77 77 77 77 77 77 77 77 77 77 77 77 77 77 77 77 77 77 77 77 77 77 77 77 77 77 77 77 77 77 77 77 77 77 77 77 77 77 77 77 77 77 77 77 77 77 77 77 77 77 77 77 77 77 77 77 77 77 77 77 77 77 77 77 77 77 77 77 77 77 77 77 77 77 77 77 
77 77 77 77 77 77 77 77 77 77 77 77 77 77 77 77 77 77 77 77 77 77 77 77 77 77 77 77 77 77 77 77 77 77 77 77 77 77 77 77 77 77 77 77 77 77 77 77 77 77 77 77 77 77 77 77 77 77 77 77 77 77 77 77 77 77 77 77 77 77 77 77 77 77 77 77 77 77 77 77 77 77 77 77 77 77 77 77 77 77 77 77 77 77 77 77 77 77 77 77 77 77 77 77 77 77 77 77 77 77 77 77 77 77 
